<svg xmlns="http://www.w3.org/2000/svg" version="1.1" width="554" height="248">
<path d="M 2.878906 221.319336 L 2.878906 214.412109 L 6.729980 214.412109 L 6.729980 215.335938 L 3.738281 215.335938 L 3.738281 221.319336 Z " fill="rgb(0, 0, 0)" fill-opacity="1.000000" />
<path d="M 2.878906 234.319336 L 2.878906 220.300781 L 3.738281 220.300781 L 3.738281 234.319336 Z " fill="rgb(0, 0, 0)" fill-opacity="1.000000" />
<path d="M 2.878906 241.335938 L 2.878906 233.300781 L 3.738281 233.300781 L 3.738281 240.412109 L 6.729980 240.412109 L 6.729980 241.335938 Z " fill="rgb(0, 0, 0)" fill-opacity="1.000000" />
<path d="M 6.892578 241.335938 L 6.892578 240.412109 L 13.729980 240.412109 L 13.729980 241.335938 Z " fill="rgb(0, 0, 0)" fill-opacity="1.000000" />
<path d="M 13.892578 241.335938 L 13.892578 240.412109 L 20.729980 240.412109 L 20.729980 241.335938 Z " fill="rgb(0, 0, 0)" fill-opacity="1.000000" />
<path d="M 20.892578 241.335938 L 20.892578 240.412109 L 27.729980 240.412109 L 27.729980 241.335938 Z " fill="rgb(0, 0, 0)" fill-opacity="1.000000" />
<path d="M 27.892578 241.335938 L 27.892578 240.412109 L 34.729980 240.412109 L 34.729980 241.335938 Z " fill="rgb(0, 0, 0)" fill-opacity="1.000000" />
<path d="M 34.892578 241.335938 L 34.892578 240.412109 L 41.729980 240.412109 L 41.729980 241.335938 Z " fill="rgb(0, 0, 0)" fill-opacity="1.000000" />
<path d="M 41.892578 241.335938 L 41.892578 240.412109 L 48.729980 240.412109 L 48.729980 241.335938 Z " fill="rgb(0, 0, 0)" fill-opacity="1.000000" />
<path d="M 48.892578 241.335938 L 48.892578 240.412109 L 55.729980 240.412109 L 55.729980 241.335938 Z " fill="rgb(0, 0, 0)" fill-opacity="1.000000" />
<path d="M 55.892578 241.335938 L 55.892578 240.412109 L 62.729980 240.412109 L 62.729980 241.335938 Z " fill="rgb(0, 0, 0)" fill-opacity="1.000000" />
<path d="M 62.892578 241.335938 L 62.892578 240.412109 L 69.729980 240.412109 L 69.729980 241.335938 Z " fill="rgb(0, 0, 0)" fill-opacity="1.000000" />
<path d="M 69.892578 241.335938 L 69.892578 240.412109 L 72.878906 240.412109 L 72.878906 233.300781 L 73.738281 233.300781 L 73.738281 241.335938 Z " fill="rgb(0, 0, 0)" fill-opacity="1.000000" />
<path d="M 100.878906 241.335938 L 100.878906 233.300781 L 101.738281 233.300781 L 101.738281 240.412109 L 104.729980 240.412109 L 104.729980 241.335938 Z " fill="rgb(0, 0, 0)" fill-opacity="1.000000" />
<path d="M 104.892578 241.335938 L 104.892578 240.412109 L 111.729980 240.412109 L 111.729980 241.335938 Z " fill="rgb(0, 0, 0)" fill-opacity="1.000000" />
<path d="M 111.892578 241.335938 L 111.892578 240.412109 L 118.729980 240.412109 L 118.729980 241.335938 Z " fill="rgb(0, 0, 0)" fill-opacity="1.000000" />
<path d="M 118.892578 241.335938 L 118.892578 240.412109 L 125.729980 240.412109 L 125.729980 241.335938 Z " fill="rgb(0, 0, 0)" fill-opacity="1.000000" />
<path d="M 125.892578 241.335938 L 125.892578 240.412109 L 132.729980 240.412109 L 132.729980 241.335938 Z " fill="rgb(0, 0, 0)" fill-opacity="1.000000" />
<path d="M 132.892578 241.335938 L 132.892578 240.412109 L 139.729980 240.412109 L 139.729980 241.335938 Z " fill="rgb(0, 0, 0)" fill-opacity="1.000000" />
<path d="M 139.892578 241.335938 L 139.892578 240.412109 L 146.729980 240.412109 L 146.729980 241.335938 Z " fill="rgb(0, 0, 0)" fill-opacity="1.000000" />
<path d="M 146.892578 241.335938 L 146.892578 240.412109 L 153.729980 240.412109 L 153.729980 241.335938 Z " fill="rgb(0, 0, 0)" fill-opacity="1.000000" />
<path d="M 153.892578 241.335938 L 153.892578 240.412109 L 160.729980 240.412109 L 160.729980 241.335938 Z " fill="rgb(0, 0, 0)" fill-opacity="1.000000" />
<path d="M 160.892578 241.335938 L 160.892578 240.412109 L 167.729980 240.412109 L 167.729980 241.335938 Z " fill="rgb(0, 0, 0)" fill-opacity="1.000000" />
<path d="M 167.892578 241.335938 L 167.892578 240.412109 L 174.729980 240.412109 L 174.729980 241.335938 Z " fill="rgb(0, 0, 0)" fill-opacity="1.000000" />
<path d="M 174.892578 241.335938 L 174.892578 240.412109 L 177.878906 240.412109 L 177.878906 233.300781 L 178.738281 233.300781 L 178.738281 241.335938 Z " fill="rgb(0, 0, 0)" fill-opacity="1.000000" />
<path d="M 205.878906 241.335938 L 205.878906 233.300781 L 206.738281 233.300781 L 206.738281 240.412109 L 209.729980 240.412109 L 209.729980 241.335938 Z " fill="rgb(0, 0, 0)" fill-opacity="1.000000" />
<path d="M 209.892578 241.335938 L 209.892578 240.412109 L 216.729980 240.412109 L 216.729980 241.335938 Z " fill="rgb(0, 0, 0)" fill-opacity="1.000000" />
<path d="M 216.892578 241.335938 L 216.892578 240.412109 L 223.729980 240.412109 L 223.729980 241.335938 Z " fill="rgb(0, 0, 0)" fill-opacity="1.000000" />
<path d="M 223.892578 241.335938 L 223.892578 240.412109 L 230.729980 240.412109 L 230.729980 241.335938 Z " fill="rgb(0, 0, 0)" fill-opacity="1.000000" />
<path d="M 230.892578 241.335938 L 230.892578 240.412109 L 237.729980 240.412109 L 237.729980 241.335938 Z " fill="rgb(0, 0, 0)" fill-opacity="1.000000" />
<path d="M 237.892578 241.335938 L 237.892578 240.412109 L 244.729980 240.412109 L 244.729980 241.335938 Z " fill="rgb(0, 0, 0)" fill-opacity="1.000000" />
<path d="M 244.892578 241.335938 L 244.892578 240.412109 L 251.729980 240.412109 L 251.729980 241.335938 Z " fill="rgb(0, 0, 0)" fill-opacity="1.000000" />
<path d="M 251.892578 241.335938 L 251.892578 240.412109 L 258.729980 240.412109 L 258.729980 241.335938 Z " fill="rgb(0, 0, 0)" fill-opacity="1.000000" />
<path d="M 258.892578 241.335938 L 258.892578 240.412109 L 265.729980 240.412109 L 265.729980 241.335938 Z " fill="rgb(0, 0, 0)" fill-opacity="1.000000" />
<path d="M 265.892578 241.335938 L 265.892578 240.412109 L 272.729980 240.412109 L 272.729980 241.335938 Z " fill="rgb(0, 0, 0)" fill-opacity="1.000000" />
<path d="M 272.892578 241.335938 L 272.892578 240.412109 L 279.729980 240.412109 L 279.729980 241.335938 Z " fill="rgb(0, 0, 0)" fill-opacity="1.000000" />
<path d="M 279.892578 241.335938 L 279.892578 240.412109 L 282.878906 240.412109 L 282.878906 233.300781 L 283.738281 233.300781 L 283.738281 241.335938 Z " fill="rgb(0, 0, 0)" fill-opacity="1.000000" />
<path d="M 24.308594 223.937012 L 23.164551 228.040527 L 25.452637 228.040527 Z M 23.653320 222.980957 L 24.969238 222.980957 L 27.423828 231.000000 L 26.301270 231.000000 L 25.710449 228.910645 L 22.901367 228.910645 L 22.321289 231.000000 L 21.198730 231.000000 Z " fill="rgb(0, 0, 0)" fill-opacity="1.000000" />
<path d="M 34.203613 226.225098 Q 33.886719 225.978027 33.559082 225.865234 Q 33.231445 225.752441 32.839355 225.752441 Q 31.915527 225.752441 31.426758 226.332520 Q 30.937988 226.912598 30.937988 228.008301 L 30.937988 231.000000 L 29.944336 231.000000 L 29.944336 224.984375 L 30.937988 224.984375 L 30.937988 226.160645 Q 31.185059 225.521484 31.697998 225.180420 Q 32.210938 224.839355 32.914551 224.839355 Q 33.279785 224.839355 33.596680 224.930664 Q 33.913574 225.021973 34.203613 225.215332 Z " fill="rgb(0, 0, 0)" fill-opacity="1.000000" />
<path d="M 41.203613 226.225098 Q 40.886719 225.978027 40.559082 225.865234 Q 40.231445 225.752441 39.839355 225.752441 Q 38.915527 225.752441 38.426758 226.332520 Q 37.937988 226.912598 37.937988 228.008301 L 37.937988 231.000000 L 36.944336 231.000000 L 36.944336 224.984375 L 37.937988 224.984375 L 37.937988 226.160645 Q 38.185059 225.521484 38.697998 225.180420 Q 39.210938 224.839355 39.914551 224.839355 Q 40.279785 224.839355 40.596680 224.930664 Q 40.913574 225.021973 41.203613 225.215332 Z " fill="rgb(0, 0, 0)" fill-opacity="1.000000" />
<path d="M 45.770508 227.976074 L 45.442871 227.976074 Q 44.578125 227.976074 44.140381 228.279541 Q 43.702637 228.583008 43.702637 229.184570 Q 43.702637 229.727051 44.030273 230.027832 Q 44.357910 230.328613 44.937988 230.328613 Q 45.754395 230.328613 46.221680 229.761963 Q 46.688965 229.195312 46.694336 228.196289 L 46.694336 227.976074 Z M 47.687988 227.567871 L 47.687988 231.000000 L 46.694336 231.000000 L 46.694336 230.108398 Q 46.377441 230.645508 45.896729 230.900635 Q 45.416016 231.155762 44.728516 231.155762 Q 43.810059 231.155762 43.262207 230.637451 Q 42.714355 230.119141 42.714355 229.249023 Q 42.714355 228.244629 43.388428 227.723633 Q 44.062500 227.202637 45.367676 227.202637 L 46.694336 227.202637 L 46.694336 227.046875 Q 46.688965 226.327148 46.329102 226.002197 Q 45.969238 225.677246 45.179688 225.677246 Q 44.674805 225.677246 44.159180 225.822266 Q 43.643555 225.967285 43.154785 226.246582 L 43.154785 225.258301 Q 43.702637 225.048828 44.204834 224.944092 Q 44.707031 224.839355 45.179688 224.839355 Q 45.926270 224.839355 46.455322 225.059570 Q 46.984375 225.279785 47.312012 225.720215 Q 47.516113 225.988770 47.602051 226.383545 Q 47.687988 226.778320 47.687988 227.567871 Z " fill="rgb(0, 0, 0)" fill-opacity="1.000000" />
<path d="M 53.608398 229.066406 Q 53.361328 229.694824 52.979980 230.720703 Q 52.448242 232.138672 52.265625 232.450195 Q 52.018555 232.869141 51.647949 233.078613 Q 51.277344 233.288086 50.783203 233.288086 L 49.988281 233.288086 L 49.988281 232.460938 L 50.573730 232.460938 Q 51.008789 232.460938 51.255859 232.208496 Q 51.502930 231.956055 51.884277 230.903320 L 49.558594 224.984375 L 50.605957 224.984375 L 52.389160 229.689453 L 54.145508 224.984375 L 55.192871 224.984375 Z " fill="rgb(0, 0, 0)" fill-opacity="1.000000" />
<path d="M 72.878906 234.319336 L 72.878906 220.300781 L 73.738281 220.300781 L 73.738281 234.319336 Z " fill="rgb(0, 0, 0)" fill-opacity="1.000000" />
<path d="M 100.878906 234.319336 L 100.878906 220.300781 L 101.738281 220.300781 L 101.738281 234.319336 Z " fill="rgb(0, 0, 0)" fill-opacity="1.000000" />
<path d="M 127.154785 222.980957 L 128.245117 222.980957 L 128.245117 230.086914 L 132.117676 230.086914 L 132.117676 231.000000 L 127.154785 231.000000 Z " fill="rgb(0, 0, 0)" fill-opacity="1.000000" />
<path d="M 134.697266 225.005859 L 137.227051 225.005859 L 137.227051 230.231934 L 139.187500 230.231934 L 139.187500 231.000000 L 134.278320 231.000000 L 134.278320 230.231934 L 136.238770 230.231934 L 136.238770 225.773926 L 134.697266 225.773926 Z M 136.238770 222.669434 L 137.227051 222.669434 L 137.227051 223.915527 L 136.238770 223.915527 Z " fill="rgb(0, 0, 0)" fill-opacity="1.000000" />
<path d="M 145.226074 225.193848 L 145.226074 226.160645 Q 144.801758 225.913574 144.372070 225.790039 Q 143.942383 225.666504 143.496582 225.666504 Q 142.825195 225.666504 142.494873 225.884033 Q 142.164551 226.101562 142.164551 226.547363 Q 142.164551 226.950195 142.411621 227.148926 Q 142.658691 227.347656 143.641602 227.535645 L 144.039062 227.610840 Q 144.774902 227.750488 145.153564 228.169434 Q 145.532227 228.588379 145.532227 229.259766 Q 145.532227 230.151367 144.898438 230.653564 Q 144.264648 231.155762 143.136719 231.155762 Q 142.690918 231.155762 142.202148 231.061768 Q 141.713379 230.967773 141.144043 230.779785 L 141.144043 229.759277 Q 141.697266 230.043945 142.202148 230.186279 Q 142.707031 230.328613 143.158203 230.328613 Q 143.813477 230.328613 144.173340 230.062744 Q 144.533203 229.796875 144.533203 229.318848 Q 144.533203 228.631348 143.217285 228.368164 L 143.174316 228.357422 L 142.803711 228.282227 Q 141.949707 228.115723 141.557617 227.720947 Q 141.165527 227.326172 141.165527 226.644043 Q 141.165527 225.779297 141.750977 225.309326 Q 142.336426 224.839355 143.421387 224.839355 Q 143.904785 224.839355 144.350586 224.927979 Q 144.796387 225.016602 145.226074 225.193848 Z " fill="rgb(0, 0, 0)" fill-opacity="1.000000" />
<path d="M 150.297852 223.276367 L 150.297852 224.984375 L 152.542969 224.984375 L 152.542969 225.752441 L 150.297852 225.752441 L 150.297852 229.018066 Q 150.297852 229.684082 150.550293 229.947266 Q 150.802734 230.210449 151.431152 230.210449 L 152.542969 230.210449 L 152.542969 231.000000 L 151.334473 231.000000 Q 150.222656 231.000000 149.766113 230.554199 Q 149.309570 230.108398 149.309570 229.018066 L 149.309570 225.752441 L 147.703613 225.752441 L 147.703613 224.984375 L 149.309570 224.984375 L 149.309570 223.276367 Z " fill="rgb(0, 0, 0)" fill-opacity="1.000000" />
<path d="M 177.878906 234.319336 L 177.878906 220.300781 L 178.738281 220.300781 L 178.738281 234.319336 Z " fill="rgb(0, 0, 0)" fill-opacity="1.000000" />
<path d="M 205.878906 234.319336 L 205.878906 220.300781 L 206.738281 220.300781 L 206.738281 234.319336 Z " fill="rgb(0, 0, 0)" fill-opacity="1.000000" />
<path d="M 227.308594 230.086914 L 229.193848 222.980957 L 230.316406 222.980957 L 227.969238 231.000000 L 226.653320 231.000000 L 224.306152 222.980957 L 225.428711 222.980957 Z " fill="rgb(0, 0, 0)" fill-opacity="1.000000" />
<path d="M 237.015625 227.498047 L 237.015625 227.981445 L 232.734863 227.981445 L 232.734863 228.013672 Q 232.691895 229.243652 233.204834 229.780762 Q 233.717773 230.317871 234.652344 230.317871 Q 235.125000 230.317871 235.640625 230.167480 Q 236.156250 230.017090 236.741699 229.710938 L 236.741699 230.693848 Q 236.177734 230.924805 235.654053 231.040283 Q 235.130371 231.155762 234.641602 231.155762 Q 233.239746 231.155762 232.450195 230.315186 Q 231.660645 229.474609 231.660645 227.997559 Q 231.660645 226.558105 232.434082 225.698730 Q 233.207520 224.839355 234.496582 224.839355 Q 235.645996 224.839355 236.309326 225.618164 Q 236.972656 226.396973 237.015625 227.498047 Z M 236.027344 227.208008 Q 235.962891 226.584961 235.573486 226.131104 Q 235.184082 225.677246 234.453613 225.677246 Q 233.739258 225.677246 233.277344 226.149902 Q 232.815430 226.622559 232.772461 227.213379 Z " fill="rgb(0, 0, 0)" fill-opacity="1.000000" />
<path d="M 243.698730 230.693848 Q 243.301270 230.924805 242.879639 231.040283 Q 242.458008 231.155762 242.017578 231.155762 Q 240.621094 231.155762 239.834229 230.317871 Q 239.047363 229.479980 239.047363 227.997559 Q 239.047363 226.515137 239.834229 225.677246 Q 240.621094 224.839355 242.017578 224.839355 Q 242.452637 224.839355 242.866211 224.952148 Q 243.279785 225.064941 243.698730 225.301270 L 243.698730 226.337891 Q 243.306641 225.988770 242.911865 225.833008 Q 242.517090 225.677246 242.017578 225.677246 Q 241.088379 225.677246 240.588867 226.278809 Q 240.089355 226.880371 240.089355 227.997559 Q 240.089355 229.109375 240.591553 229.713623 Q 241.093750 230.317871 242.017578 230.317871 Q 242.533203 230.317871 242.941406 230.159424 Q 243.349609 230.000977 243.698730 229.667969 Z " fill="rgb(0, 0, 0)" fill-opacity="1.000000" />
<path d="M 248.297852 223.276367 L 248.297852 224.984375 L 250.542969 224.984375 L 250.542969 225.752441 L 248.297852 225.752441 L 248.297852 229.018066 Q 248.297852 229.684082 248.550293 229.947266 Q 248.802734 230.210449 249.431152 230.210449 L 250.542969 230.210449 L 250.542969 231.000000 L 249.334473 231.000000 Q 248.222656 231.000000 247.766113 230.554199 Q 247.309570 230.108398 247.309570 229.018066 L 247.309570 225.752441 L 245.703613 225.752441 L 245.703613 224.984375 L 247.309570 224.984375 L 247.309570 223.276367 Z " fill="rgb(0, 0, 0)" fill-opacity="1.000000" />
<path d="M 255.308594 225.677246 Q 254.556641 225.677246 254.169922 226.262695 Q 253.783203 226.848145 253.783203 227.997559 Q 253.783203 229.141602 254.169922 229.729736 Q 254.556641 230.317871 255.308594 230.317871 Q 256.065918 230.317871 256.452637 229.729736 Q 256.839355 229.141602 256.839355 227.997559 Q 256.839355 226.848145 256.452637 226.262695 Q 256.065918 225.677246 255.308594 225.677246 Z M 255.308594 224.839355 Q 256.560059 224.839355 257.223389 225.650391 Q 257.886719 226.461426 257.886719 227.997559 Q 257.886719 229.539062 257.226074 230.347412 Q 256.565430 231.155762 255.308594 231.155762 Q 254.057129 231.155762 253.396484 230.347412 Q 252.735840 229.539062 252.735840 227.997559 Q 252.735840 226.461426 253.396484 225.650391 Q 254.057129 224.839355 255.308594 224.839355 Z " fill="rgb(0, 0, 0)" fill-opacity="1.000000" />
<path d="M 265.203613 226.225098 Q 264.886719 225.978027 264.559082 225.865234 Q 264.231445 225.752441 263.839355 225.752441 Q 262.915527 225.752441 262.426758 226.332520 Q 261.937988 226.912598 261.937988 228.008301 L 261.937988 231.000000 L 260.944336 231.000000 L 260.944336 224.984375 L 261.937988 224.984375 L 261.937988 226.160645 Q 262.185059 225.521484 262.697998 225.180420 Q 263.210938 224.839355 263.914551 224.839355 Q 264.279785 224.839355 264.596680 224.930664 Q 264.913574 225.021973 265.203613 225.215332 Z " fill="rgb(0, 0, 0)" fill-opacity="1.000000" />
<path d="M 282.878906 234.319336 L 282.878906 220.300781 L 283.738281 220.300781 L 283.738281 234.319336 Z " fill="rgb(0, 0, 0)" fill-opacity="1.000000" />
<path d="M 6.892578 215.335938 L 6.892578 214.412109 L 13.729980 214.412109 L 13.729980 215.335938 Z " fill="rgb(0, 0, 0)" fill-opacity="1.000000" />
<path d="M 13.892578 215.335938 L 13.892578 214.412109 L 20.729980 214.412109 L 20.729980 215.335938 Z " fill="rgb(0, 0, 0)" fill-opacity="1.000000" />
<path d="M 20.892578 215.335938 L 20.892578 214.412109 L 27.729980 214.412109 L 27.729980 215.335938 Z " fill="rgb(0, 0, 0)" fill-opacity="1.000000" />
<path d="M 27.892578 215.335938 L 27.892578 214.412109 L 34.729980 214.412109 L 34.729980 215.335938 Z " fill="rgb(0, 0, 0)" fill-opacity="1.000000" />
<path d="M 34.892578 215.335938 L 34.892578 214.412109 L 41.729980 214.412109 L 41.729980 215.335938 Z " fill="rgb(0, 0, 0)" fill-opacity="1.000000" />
<path d="M 41.892578 215.335938 L 41.892578 214.412109 L 48.729980 214.412109 L 48.729980 215.335938 Z " fill="rgb(0, 0, 0)" fill-opacity="1.000000" />
<path d="M 48.892578 215.335938 L 48.892578 214.412109 L 55.729980 214.412109 L 55.729980 215.335938 Z " fill="rgb(0, 0, 0)" fill-opacity="1.000000" />
<path d="M 55.892578 215.335938 L 55.892578 214.412109 L 62.729980 214.412109 L 62.729980 215.335938 Z " fill="rgb(0, 0, 0)" fill-opacity="1.000000" />
<path d="M 62.892578 215.335938 L 62.892578 214.412109 L 69.729980 214.412109 L 69.729980 215.335938 Z " fill="rgb(0, 0, 0)" fill-opacity="1.000000" />
<path d="M 72.878906 221.319336 L 72.878906 215.335938 L 69.892578 215.335938 L 69.892578 214.412109 L 73.738281 214.412109 L 73.738281 221.319336 Z " fill="rgb(0, 0, 0)" fill-opacity="1.000000" />
<path d="M 100.878906 221.319336 L 100.878906 214.412109 L 104.729980 214.412109 L 104.729980 215.335938 L 101.738281 215.335938 L 101.738281 221.319336 Z " fill="rgb(0, 0, 0)" fill-opacity="1.000000" />
<path d="M 104.892578 215.335938 L 104.892578 214.412109 L 111.729980 214.412109 L 111.729980 215.335938 Z " fill="rgb(0, 0, 0)" fill-opacity="1.000000" />
<path d="M 111.892578 215.335938 L 111.892578 214.412109 L 118.729980 214.412109 L 118.729980 215.335938 Z " fill="rgb(0, 0, 0)" fill-opacity="1.000000" />
<path d="M 118.892578 215.335938 L 118.892578 214.412109 L 125.729980 214.412109 L 125.729980 215.335938 Z " fill="rgb(0, 0, 0)" fill-opacity="1.000000" />
<path d="M 125.892578 215.335938 L 125.892578 214.412109 L 132.729980 214.412109 L 132.729980 215.335938 Z " fill="rgb(0, 0, 0)" fill-opacity="1.000000" />
<path d="M 132.892578 215.335938 L 132.892578 214.412109 L 139.729980 214.412109 L 139.729980 215.335938 Z " fill="rgb(0, 0, 0)" fill-opacity="1.000000" />
<path d="M 139.892578 215.335938 L 139.892578 214.412109 L 146.729980 214.412109 L 146.729980 215.335938 Z " fill="rgb(0, 0, 0)" fill-opacity="1.000000" />
<path d="M 146.892578 215.335938 L 146.892578 214.412109 L 153.729980 214.412109 L 153.729980 215.335938 Z " fill="rgb(0, 0, 0)" fill-opacity="1.000000" />
<path d="M 153.892578 215.335938 L 153.892578 214.412109 L 160.729980 214.412109 L 160.729980 215.335938 Z " fill="rgb(0, 0, 0)" fill-opacity="1.000000" />
<path d="M 160.892578 215.335938 L 160.892578 214.412109 L 167.729980 214.412109 L 167.729980 215.335938 Z " fill="rgb(0, 0, 0)" fill-opacity="1.000000" />
<path d="M 167.892578 215.335938 L 167.892578 214.412109 L 174.729980 214.412109 L 174.729980 215.335938 Z " fill="rgb(0, 0, 0)" fill-opacity="1.000000" />
<path d="M 177.878906 221.319336 L 177.878906 215.335938 L 174.892578 215.335938 L 174.892578 214.412109 L 178.738281 214.412109 L 178.738281 221.319336 Z " fill="rgb(0, 0, 0)" fill-opacity="1.000000" />
<path d="M 205.878906 221.319336 L 205.878906 214.412109 L 209.729980 214.412109 L 209.729980 215.335938 L 206.738281 215.335938 L 206.738281 221.319336 Z " fill="rgb(0, 0, 0)" fill-opacity="1.000000" />
<path d="M 209.892578 215.335938 L 209.892578 214.412109 L 216.729980 214.412109 L 216.729980 215.335938 Z " fill="rgb(0, 0, 0)" fill-opacity="1.000000" />
<path d="M 216.892578 215.335938 L 216.892578 214.412109 L 223.729980 214.412109 L 223.729980 215.335938 Z " fill="rgb(0, 0, 0)" fill-opacity="1.000000" />
<path d="M 223.892578 215.335938 L 223.892578 214.412109 L 230.729980 214.412109 L 230.729980 215.335938 Z " fill="rgb(0, 0, 0)" fill-opacity="1.000000" />
<path d="M 230.892578 215.335938 L 230.892578 214.412109 L 237.729980 214.412109 L 237.729980 215.335938 Z " fill="rgb(0, 0, 0)" fill-opacity="1.000000" />
<path d="M 237.892578 215.335938 L 237.892578 214.412109 L 244.729980 214.412109 L 244.729980 215.335938 Z " fill="rgb(0, 0, 0)" fill-opacity="1.000000" />
<path d="M 244.892578 215.335938 L 244.892578 214.412109 L 251.729980 214.412109 L 251.729980 215.335938 Z " fill="rgb(0, 0, 0)" fill-opacity="1.000000" />
<path d="M 251.892578 215.335938 L 251.892578 214.412109 L 258.729980 214.412109 L 258.729980 215.335938 Z " fill="rgb(0, 0, 0)" fill-opacity="1.000000" />
<path d="M 258.892578 215.335938 L 258.892578 214.412109 L 265.729980 214.412109 L 265.729980 215.335938 Z " fill="rgb(0, 0, 0)" fill-opacity="1.000000" />
<path d="M 265.892578 215.335938 L 265.892578 214.412109 L 272.729980 214.412109 L 272.729980 215.335938 Z " fill="rgb(0, 0, 0)" fill-opacity="1.000000" />
<path d="M 272.892578 215.335938 L 272.892578 214.412109 L 279.729980 214.412109 L 279.729980 215.335938 Z " fill="rgb(0, 0, 0)" fill-opacity="1.000000" />
<path d="M 282.878906 221.319336 L 282.878906 215.335938 L 279.892578 215.335938 L 279.892578 214.412109 L 283.738281 214.412109 L 283.738281 221.319336 Z " fill="rgb(0, 0, 0)" fill-opacity="1.000000" />
<path d="M 37.878906 156.319336 L 37.878906 149.412109 L 41.729980 149.412109 L 41.729980 150.335938 L 38.738281 150.335938 L 38.738281 156.319336 Z " fill="rgb(0, 0, 0)" fill-opacity="1.000000" />
<path d="M 37.878906 182.319336 L 37.878906 168.300781 L 38.738281 168.300781 L 38.738281 182.319336 Z " fill="rgb(0, 0, 0)" fill-opacity="1.000000" />
<path d="M 37.878906 208.319336 L 37.878906 194.300781 L 38.738281 194.300781 L 38.738281 208.319336 Z " fill="rgb(0, 0, 0)" fill-opacity="1.000000" />
<path d="M 142.878906 208.319336 L 142.878906 194.300781 L 143.738281 194.300781 L 143.738281 208.319336 Z " fill="rgb(0, 0, 0)" fill-opacity="1.000000" />
<path d="M 247.878906 208.319336 L 247.878906 194.300781 L 248.738281 194.300781 L 248.738281 208.319336 Z " fill="rgb(0, 0, 0)" fill-opacity="1.000000" />
<path d="M 142.878906 195.319336 L 142.878906 188.412109 L 146.729980 188.412109 L 146.729980 189.335938 L 143.738281 189.335938 L 143.738281 195.319336 Z " fill="rgb(0, 0, 0)" fill-opacity="1.000000" />
<path d="M 146.892578 189.335938 L 146.892578 188.412109 L 153.729980 188.412109 L 153.729980 189.335938 Z " fill="rgb(0, 0, 0)" fill-opacity="1.000000" />
<path d="M 153.892578 189.335938 L 153.892578 188.412109 L 160.729980 188.412109 L 160.729980 189.335938 Z " fill="rgb(0, 0, 0)" fill-opacity="1.000000" />
<path d="M 160.892578 189.335938 L 160.892578 188.412109 L 167.729980 188.412109 L 167.729980 189.335938 Z " fill="rgb(0, 0, 0)" fill-opacity="1.000000" />
<path d="M 167.892578 189.335938 L 167.892578 188.412109 L 174.729980 188.412109 L 174.729980 189.335938 Z " fill="rgb(0, 0, 0)" fill-opacity="1.000000" />
<path d="M 174.892578 189.335938 L 174.892578 188.412109 L 181.729980 188.412109 L 181.729980 189.335938 Z " fill="rgb(0, 0, 0)" fill-opacity="1.000000" />
<path d="M 181.892578 189.335938 L 181.892578 188.412109 L 188.729980 188.412109 L 188.729980 189.335938 Z " fill="rgb(0, 0, 0)" fill-opacity="1.000000" />
<path d="M 188.892578 189.335938 L 188.892578 188.412109 L 191.878906 188.412109 L 191.878906 181.300781 L 192.738281 181.300781 L 192.738281 188.412109 L 195.729980 188.412109 L 195.729980 189.335938 Z " fill="rgb(0, 0, 0)" fill-opacity="1.000000" />
<path d="M 195.892578 189.335938 L 195.892578 188.412109 L 202.729980 188.412109 L 202.729980 189.335938 Z " fill="rgb(0, 0, 0)" fill-opacity="1.000000" />
<path d="M 202.892578 189.335938 L 202.892578 188.412109 L 209.729980 188.412109 L 209.729980 189.335938 Z " fill="rgb(0, 0, 0)" fill-opacity="1.000000" />
<path d="M 209.892578 189.335938 L 209.892578 188.412109 L 216.729980 188.412109 L 216.729980 189.335938 Z " fill="rgb(0, 0, 0)" fill-opacity="1.000000" />
<path d="M 216.892578 189.335938 L 216.892578 188.412109 L 223.729980 188.412109 L 223.729980 189.335938 Z " fill="rgb(0, 0, 0)" fill-opacity="1.000000" />
<path d="M 223.892578 189.335938 L 223.892578 188.412109 L 230.729980 188.412109 L 230.729980 189.335938 Z " fill="rgb(0, 0, 0)" fill-opacity="1.000000" />
<path d="M 230.892578 189.335938 L 230.892578 188.412109 L 237.729980 188.412109 L 237.729980 189.335938 Z " fill="rgb(0, 0, 0)" fill-opacity="1.000000" />
<path d="M 237.892578 189.335938 L 237.892578 188.412109 L 244.729980 188.412109 L 244.729980 189.335938 Z " fill="rgb(0, 0, 0)" fill-opacity="1.000000" />
<path d="M 247.878906 195.319336 L 247.878906 189.335938 L 244.892578 189.335938 L 244.892578 188.412109 L 248.738281 188.412109 L 248.738281 195.319336 Z " fill="rgb(0, 0, 0)" fill-opacity="1.000000" />
<path d="M 189.950684 178.806641 L 194.671875 178.806641 L 192.308594 174.090820 Z M 189.032227 179.418945 L 192.308594 172.866211 L 195.590332 179.418945 Z " fill="rgb(0, 0, 0)" fill-opacity="1.000000" />
<path d="M 156.878906 163.335938 L 156.878906 155.300781 L 157.738281 155.300781 L 157.738281 162.412109 L 160.729980 162.412109 L 160.729980 163.335938 Z " fill="rgb(0, 0, 0)" fill-opacity="1.000000" />
<path d="M 160.892578 163.335938 L 160.892578 162.412109 L 167.729980 162.412109 L 167.729980 163.335938 Z " fill="rgb(0, 0, 0)" fill-opacity="1.000000" />
<path d="M 167.892578 163.335938 L 167.892578 162.412109 L 174.729980 162.412109 L 174.729980 163.335938 Z " fill="rgb(0, 0, 0)" fill-opacity="1.000000" />
<path d="M 174.892578 163.335938 L 174.892578 162.412109 L 181.729980 162.412109 L 181.729980 163.335938 Z " fill="rgb(0, 0, 0)" fill-opacity="1.000000" />
<path d="M 181.892578 163.335938 L 181.892578 162.412109 L 188.729980 162.412109 L 188.729980 163.335938 Z " fill="rgb(0, 0, 0)" fill-opacity="1.000000" />
<path d="M 188.892578 163.335938 L 188.892578 162.412109 L 195.729980 162.412109 L 195.729980 163.335938 Z " fill="rgb(0, 0, 0)" fill-opacity="1.000000" />
<path d="M 195.892578 163.335938 L 195.892578 162.412109 L 202.729980 162.412109 L 202.729980 163.335938 Z " fill="rgb(0, 0, 0)" fill-opacity="1.000000" />
<path d="M 202.892578 163.335938 L 202.892578 162.412109 L 209.729980 162.412109 L 209.729980 163.335938 Z " fill="rgb(0, 0, 0)" fill-opacity="1.000000" />
<path d="M 209.892578 163.335938 L 209.892578 162.412109 L 216.729980 162.412109 L 216.729980 163.335938 Z " fill="rgb(0, 0, 0)" fill-opacity="1.000000" />
<path d="M 216.892578 163.335938 L 216.892578 162.412109 L 223.729980 162.412109 L 223.729980 163.335938 Z " fill="rgb(0, 0, 0)" fill-opacity="1.000000" />
<path d="M 223.892578 163.335938 L 223.892578 162.412109 L 226.878906 162.412109 L 226.878906 155.300781 L 227.738281 155.300781 L 227.738281 163.335938 Z " fill="rgb(0, 0, 0)" fill-opacity="1.000000" />
<path d="M 261.878906 163.335938 L 261.878906 155.300781 L 262.738281 155.300781 L 262.738281 162.412109 L 265.729980 162.412109 L 265.729980 163.335938 Z " fill="rgb(0, 0, 0)" fill-opacity="1.000000" />
<path d="M 265.892578 163.335938 L 265.892578 162.412109 L 272.729980 162.412109 L 272.729980 163.335938 Z " fill="rgb(0, 0, 0)" fill-opacity="1.000000" />
<path d="M 272.892578 163.335938 L 272.892578 162.412109 L 279.729980 162.412109 L 279.729980 163.335938 Z " fill="rgb(0, 0, 0)" fill-opacity="1.000000" />
<path d="M 279.892578 163.335938 L 279.892578 162.412109 L 286.729980 162.412109 L 286.729980 163.335938 Z " fill="rgb(0, 0, 0)" fill-opacity="1.000000" />
<path d="M 286.892578 163.335938 L 286.892578 162.412109 L 293.729980 162.412109 L 293.729980 163.335938 Z " fill="rgb(0, 0, 0)" fill-opacity="1.000000" />
<path d="M 293.892578 163.335938 L 293.892578 162.412109 L 300.729980 162.412109 L 300.729980 163.335938 Z " fill="rgb(0, 0, 0)" fill-opacity="1.000000" />
<path d="M 300.892578 163.335938 L 300.892578 162.412109 L 307.729980 162.412109 L 307.729980 163.335938 Z " fill="rgb(0, 0, 0)" fill-opacity="1.000000" />
<path d="M 307.892578 163.335938 L 307.892578 162.412109 L 314.729980 162.412109 L 314.729980 163.335938 Z " fill="rgb(0, 0, 0)" fill-opacity="1.000000" />
<path d="M 314.892578 163.335938 L 314.892578 162.412109 L 321.729980 162.412109 L 321.729980 163.335938 Z " fill="rgb(0, 0, 0)" fill-opacity="1.000000" />
<path d="M 321.892578 163.335938 L 321.892578 162.412109 L 328.729980 162.412109 L 328.729980 163.335938 Z " fill="rgb(0, 0, 0)" fill-opacity="1.000000" />
<path d="M 328.892578 163.335938 L 328.892578 162.412109 L 331.878906 162.412109 L 331.878906 155.300781 L 332.738281 155.300781 L 332.738281 163.335938 Z " fill="rgb(0, 0, 0)" fill-opacity="1.000000" />
<path d="M 366.878906 163.335938 L 366.878906 155.300781 L 367.738281 155.300781 L 367.738281 162.412109 L 370.729980 162.412109 L 370.729980 163.335938 Z " fill="rgb(0, 0, 0)" fill-opacity="1.000000" />
<path d="M 370.892578 163.335938 L 370.892578 162.412109 L 377.729980 162.412109 L 377.729980 163.335938 Z " fill="rgb(0, 0, 0)" fill-opacity="1.000000" />
<path d="M 377.892578 163.335938 L 377.892578 162.412109 L 384.729980 162.412109 L 384.729980 163.335938 Z " fill="rgb(0, 0, 0)" fill-opacity="1.000000" />
<path d="M 384.892578 163.335938 L 384.892578 162.412109 L 391.729980 162.412109 L 391.729980 163.335938 Z " fill="rgb(0, 0, 0)" fill-opacity="1.000000" />
<path d="M 391.892578 163.335938 L 391.892578 162.412109 L 398.729980 162.412109 L 398.729980 163.335938 Z " fill="rgb(0, 0, 0)" fill-opacity="1.000000" />
<path d="M 398.892578 163.335938 L 398.892578 162.412109 L 405.729980 162.412109 L 405.729980 163.335938 Z " fill="rgb(0, 0, 0)" fill-opacity="1.000000" />
<path d="M 405.892578 163.335938 L 405.892578 162.412109 L 412.729980 162.412109 L 412.729980 163.335938 Z " fill="rgb(0, 0, 0)" fill-opacity="1.000000" />
<path d="M 412.892578 163.335938 L 412.892578 162.412109 L 419.729980 162.412109 L 419.729980 163.335938 Z " fill="rgb(0, 0, 0)" fill-opacity="1.000000" />
<path d="M 419.892578 163.335938 L 419.892578 162.412109 L 426.729980 162.412109 L 426.729980 163.335938 Z " fill="rgb(0, 0, 0)" fill-opacity="1.000000" />
<path d="M 426.892578 163.335938 L 426.892578 162.412109 L 433.729980 162.412109 L 433.729980 163.335938 Z " fill="rgb(0, 0, 0)" fill-opacity="1.000000" />
<path d="M 433.892578 163.335938 L 433.892578 162.412109 L 436.878906 162.412109 L 436.878906 155.300781 L 437.738281 155.300781 L 437.738281 163.335938 Z " fill="rgb(0, 0, 0)" fill-opacity="1.000000" />
<path d="M 471.878906 163.335938 L 471.878906 155.300781 L 472.738281 155.300781 L 472.738281 162.412109 L 475.729980 162.412109 L 475.729980 163.335938 Z " fill="rgb(0, 0, 0)" fill-opacity="1.000000" />
<path d="M 475.892578 163.335938 L 475.892578 162.412109 L 482.729980 162.412109 L 482.729980 163.335938 Z " fill="rgb(0, 0, 0)" fill-opacity="1.000000" />
<path d="M 482.892578 163.335938 L 482.892578 162.412109 L 489.729980 162.412109 L 489.729980 163.335938 Z " fill="rgb(0, 0, 0)" fill-opacity="1.000000" />
<path d="M 489.892578 163.335938 L 489.892578 162.412109 L 496.729980 162.412109 L 496.729980 163.335938 Z " fill="rgb(0, 0, 0)" fill-opacity="1.000000" />
<path d="M 496.892578 163.335938 L 496.892578 162.412109 L 503.729980 162.412109 L 503.729980 163.335938 Z " fill="rgb(0, 0, 0)" fill-opacity="1.000000" />
<path d="M 503.892578 163.335938 L 503.892578 162.412109 L 510.729980 162.412109 L 510.729980 163.335938 Z " fill="rgb(0, 0, 0)" fill-opacity="1.000000" />
<path d="M 510.892578 163.335938 L 510.892578 162.412109 L 517.729980 162.412109 L 517.729980 163.335938 Z " fill="rgb(0, 0, 0)" fill-opacity="1.000000" />
<path d="M 517.892578 163.335938 L 517.892578 162.412109 L 524.729980 162.412109 L 524.729980 163.335938 Z " fill="rgb(0, 0, 0)" fill-opacity="1.000000" />
<path d="M 524.892578 163.335938 L 524.892578 162.412109 L 531.729980 162.412109 L 531.729980 163.335938 Z " fill="rgb(0, 0, 0)" fill-opacity="1.000000" />
<path d="M 531.892578 163.335938 L 531.892578 162.412109 L 538.729980 162.412109 L 538.729980 163.335938 Z " fill="rgb(0, 0, 0)" fill-opacity="1.000000" />
<path d="M 538.892578 163.335938 L 538.892578 162.412109 L 545.729980 162.412109 L 545.729980 163.335938 Z " fill="rgb(0, 0, 0)" fill-opacity="1.000000" />
<path d="M 545.892578 163.335938 L 545.892578 162.412109 L 548.878906 162.412109 L 548.878906 155.300781 L 549.738281 155.300781 L 549.738281 163.335938 Z " fill="rgb(0, 0, 0)" fill-opacity="1.000000" />
<path d="M 48.892578 150.335938 L 48.892578 149.412109 L 55.729980 149.412109 L 55.729980 150.335938 Z " fill="rgb(0, 0, 0)" fill-opacity="1.000000" />
<path d="M 62.892578 150.335938 L 62.892578 149.412109 L 69.729980 149.412109 L 69.729980 150.335938 Z " fill="rgb(0, 0, 0)" fill-opacity="1.000000" />
<path d="M 76.892578 150.335938 L 76.892578 149.412109 L 83.729980 149.412109 L 83.729980 150.335938 Z " fill="rgb(0, 0, 0)" fill-opacity="1.000000" />
<path d="M 90.892578 150.335938 L 90.892578 149.412109 L 97.729980 149.412109 L 97.729980 150.335938 Z " fill="rgb(0, 0, 0)" fill-opacity="1.000000" />
<path d="M 104.892578 150.335938 L 104.892578 149.412109 L 111.729980 149.412109 L 111.729980 150.335938 Z " fill="rgb(0, 0, 0)" fill-opacity="1.000000" />
<path d="M 118.892578 150.335938 L 118.892578 149.412109 L 125.729980 149.412109 L 125.729980 150.335938 Z " fill="rgb(0, 0, 0)" fill-opacity="1.000000" />
<path d="M 132.892578 150.335938 L 132.892578 149.412109 L 139.729980 149.412109 L 139.729980 150.335938 Z " fill="rgb(0, 0, 0)" fill-opacity="1.000000" />
<path d="M 147.644531 152.505859 L 152.365723 150.142578 L 147.644531 147.779297 Z M 147.032227 153.418945 L 147.032227 146.866211 L 153.590332 150.142578 Z " fill="rgb(0, 0, 0)" fill-opacity="1.000000" />
<path d="M 156.878906 156.319336 L 156.878906 142.300781 L 157.738281 142.300781 L 157.738281 156.319336 Z " fill="rgb(0, 0, 0)" fill-opacity="1.000000" />
<path d="M 187.435547 145.254883 L 187.435547 146.355957 Q 186.941406 146.039062 186.444580 145.877930 Q 185.947754 145.716797 185.442871 145.716797 Q 184.674805 145.716797 184.229004 146.073975 Q 183.783203 146.431152 183.783203 147.038086 Q 183.783203 147.569824 184.075928 147.849121 Q 184.368652 148.128418 185.168945 148.316406 L 185.738281 148.445312 Q 186.866211 148.708496 187.381836 149.272461 Q 187.897461 149.836426 187.897461 150.808594 Q 187.897461 151.952637 187.188477 152.554199 Q 186.479492 153.155762 185.125977 153.155762 Q 184.562012 153.155762 183.992676 153.034912 Q 183.423340 152.914062 182.848633 152.672363 L 182.848633 151.517578 Q 183.466309 151.909668 184.016846 152.092285 Q 184.567383 152.274902 185.125977 152.274902 Q 185.947754 152.274902 186.404297 151.906982 Q 186.860840 151.539062 186.860840 150.878418 Q 186.860840 150.276855 186.546631 149.959961 Q 186.232422 149.643066 185.453613 149.471191 L 184.873535 149.336914 Q 183.756348 149.084473 183.251465 148.574219 Q 182.746582 148.063965 182.746582 147.204590 Q 182.746582 146.130371 183.468994 145.483154 Q 184.191406 144.835938 185.389160 144.835938 Q 185.851074 144.835938 186.361328 144.940674 Q 186.871582 145.045410 187.435547 145.254883 Z " fill="rgb(0, 0, 0)" fill-opacity="1.000000" />
<path d="M 195.015625 149.498047 L 195.015625 149.981445 L 190.734863 149.981445 L 190.734863 150.013672 Q 190.691895 151.243652 191.204834 151.780762 Q 191.717773 152.317871 192.652344 152.317871 Q 193.125000 152.317871 193.640625 152.167480 Q 194.156250 152.017090 194.741699 151.710938 L 194.741699 152.693848 Q 194.177734 152.924805 193.654053 153.040283 Q 193.130371 153.155762 192.641602 153.155762 Q 191.239746 153.155762 190.450195 152.315186 Q 189.660645 151.474609 189.660645 149.997559 Q 189.660645 148.558105 190.434082 147.698730 Q 191.207520 146.839355 192.496582 146.839355 Q 193.645996 146.839355 194.309326 147.618164 Q 194.972656 148.396973 195.015625 149.498047 Z M 194.027344 149.208008 Q 193.962891 148.584961 193.573486 148.131104 Q 193.184082 147.677246 192.453613 147.677246 Q 191.739258 147.677246 191.277344 148.149902 Q 190.815430 148.622559 190.772461 149.213379 Z " fill="rgb(0, 0, 0)" fill-opacity="1.000000" />
<path d="M 197.783203 150.019043 Q 197.783203 151.168457 198.145752 151.753906 Q 198.508301 152.339355 199.222656 152.339355 Q 199.937012 152.339355 200.304932 151.751221 Q 200.672852 151.163086 200.672852 150.019043 Q 200.672852 148.875000 200.304932 148.286865 Q 199.937012 147.698730 199.222656 147.698730 Q 198.508301 147.698730 198.145752 148.284180 Q 197.783203 148.869629 197.783203 150.019043 Z M 200.672852 152.253418 Q 200.431152 152.699219 200.020264 152.938232 Q 199.609375 153.177246 199.066895 153.177246 Q 197.987305 153.177246 197.361572 152.342041 Q 196.735840 151.506836 196.735840 150.040527 Q 196.735840 148.547363 197.358887 147.704102 Q 197.981934 146.860840 199.066895 146.860840 Q 199.604004 146.860840 200.014893 147.094482 Q 200.425781 147.328125 200.672852 147.773926 L 200.672852 147.005859 L 201.666504 147.005859 L 201.666504 155.309570 L 200.672852 155.309570 Z " fill="rgb(0, 0, 0)" fill-opacity="1.000000" />
<path d="M 226.878906 156.319336 L 226.878906 142.300781 L 227.738281 142.300781 L 227.738281 156.319336 Z " fill="rgb(0, 0, 0)" fill-opacity="1.000000" />
<path d="M 261.878906 156.319336 L 261.878906 142.300781 L 262.738281 142.300781 L 262.738281 156.319336 Z " fill="rgb(0, 0, 0)" fill-opacity="1.000000" />
<path d="M 292.435547 145.254883 L 292.435547 146.355957 Q 291.941406 146.039062 291.444580 145.877930 Q 290.947754 145.716797 290.442871 145.716797 Q 289.674805 145.716797 289.229004 146.073975 Q 288.783203 146.431152 288.783203 147.038086 Q 288.783203 147.569824 289.075928 147.849121 Q 289.368652 148.128418 290.168945 148.316406 L 290.738281 148.445312 Q 291.866211 148.708496 292.381836 149.272461 Q 292.897461 149.836426 292.897461 150.808594 Q 292.897461 151.952637 292.188477 152.554199 Q 291.479492 153.155762 290.125977 153.155762 Q 289.562012 153.155762 288.992676 153.034912 Q 288.423340 152.914062 287.848633 152.672363 L 287.848633 151.517578 Q 288.466309 151.909668 289.016846 152.092285 Q 289.567383 152.274902 290.125977 152.274902 Q 290.947754 152.274902 291.404297 151.906982 Q 291.860840 151.539062 291.860840 150.878418 Q 291.860840 150.276855 291.546631 149.959961 Q 291.232422 149.643066 290.453613 149.471191 L 289.873535 149.336914 Q 288.756348 149.084473 288.251465 148.574219 Q 287.746582 148.063965 287.746582 147.204590 Q 287.746582 146.130371 288.468994 145.483154 Q 289.191406 144.835938 290.389160 144.835938 Q 290.851074 144.835938 291.361328 144.940674 Q 291.871582 145.045410 292.435547 145.254883 Z " fill="rgb(0, 0, 0)" fill-opacity="1.000000" />
<path d="M 300.015625 149.498047 L 300.015625 149.981445 L 295.734863 149.981445 L 295.734863 150.013672 Q 295.691895 151.243652 296.204834 151.780762 Q 296.717773 152.317871 297.652344 152.317871 Q 298.125000 152.317871 298.640625 152.167480 Q 299.156250 152.017090 299.741699 151.710938 L 299.741699 152.693848 Q 299.177734 152.924805 298.654053 153.040283 Q 298.130371 153.155762 297.641602 153.155762 Q 296.239746 153.155762 295.450195 152.315186 Q 294.660645 151.474609 294.660645 149.997559 Q 294.660645 148.558105 295.434082 147.698730 Q 296.207520 146.839355 297.496582 146.839355 Q 298.645996 146.839355 299.309326 147.618164 Q 299.972656 148.396973 300.015625 149.498047 Z M 299.027344 149.208008 Q 298.962891 148.584961 298.573486 148.131104 Q 298.184082 147.677246 297.453613 147.677246 Q 296.739258 147.677246 296.277344 148.149902 Q 295.815430 148.622559 295.772461 149.213379 Z " fill="rgb(0, 0, 0)" fill-opacity="1.000000" />
<path d="M 304.297852 145.276367 L 304.297852 146.984375 L 306.542969 146.984375 L 306.542969 147.752441 L 304.297852 147.752441 L 304.297852 151.018066 Q 304.297852 151.684082 304.550293 151.947266 Q 304.802734 152.210449 305.431152 152.210449 L 306.542969 152.210449 L 306.542969 153.000000 L 305.334473 153.000000 Q 304.222656 153.000000 303.766113 152.554199 Q 303.309570 152.108398 303.309570 151.018066 L 303.309570 147.752441 L 301.703613 147.752441 L 301.703613 146.984375 L 303.309570 146.984375 L 303.309570 145.276367 Z " fill="rgb(0, 0, 0)" fill-opacity="1.000000" />
<path d="M 331.878906 156.319336 L 331.878906 142.300781 L 332.738281 142.300781 L 332.738281 156.319336 Z " fill="rgb(0, 0, 0)" fill-opacity="1.000000" />
<path d="M 366.878906 156.319336 L 366.878906 142.300781 L 367.738281 142.300781 L 367.738281 156.319336 Z " fill="rgb(0, 0, 0)" fill-opacity="1.000000" />
<path d="M 392.193359 145.007812 L 393.643555 145.007812 L 395.029297 149.079102 L 396.425781 145.007812 L 397.881348 145.007812 L 397.881348 153.000000 L 396.876953 153.000000 L 396.876953 145.937012 L 395.448242 150.147949 L 394.626465 150.147949 L 393.192383 145.937012 L 393.192383 153.000000 L 392.193359 153.000000 Z " fill="rgb(0, 0, 0)" fill-opacity="1.000000" />
<path d="M 402.770508 149.976074 L 402.442871 149.976074 Q 401.578125 149.976074 401.140381 150.279541 Q 400.702637 150.583008 400.702637 151.184570 Q 400.702637 151.727051 401.030273 152.027832 Q 401.357910 152.328613 401.937988 152.328613 Q 402.754395 152.328613 403.221680 151.761963 Q 403.688965 151.195312 403.694336 150.196289 L 403.694336 149.976074 Z M 404.687988 149.567871 L 404.687988 153.000000 L 403.694336 153.000000 L 403.694336 152.108398 Q 403.377441 152.645508 402.896729 152.900635 Q 402.416016 153.155762 401.728516 153.155762 Q 400.810059 153.155762 400.262207 152.637451 Q 399.714355 152.119141 399.714355 151.249023 Q 399.714355 150.244629 400.388428 149.723633 Q 401.062500 149.202637 402.367676 149.202637 L 403.694336 149.202637 L 403.694336 149.046875 Q 403.688965 148.327148 403.329102 148.002197 Q 402.969238 147.677246 402.179688 147.677246 Q 401.674805 147.677246 401.159180 147.822266 Q 400.643555 147.967285 400.154785 148.246582 L 400.154785 147.258301 Q 400.702637 147.048828 401.204834 146.944092 Q 401.707031 146.839355 402.179688 146.839355 Q 402.926270 146.839355 403.455322 147.059570 Q 403.984375 147.279785 404.312012 147.720215 Q 404.516113 147.988770 404.602051 148.383545 Q 404.687988 148.778320 404.687988 149.567871 Z " fill="rgb(0, 0, 0)" fill-opacity="1.000000" />
<path d="M 408.014160 152.242676 L 408.014160 155.288086 L 407.020508 155.288086 L 407.020508 146.984375 L 408.014160 146.984375 L 408.014160 147.752441 Q 408.261230 147.306641 408.672119 147.072998 Q 409.083008 146.839355 409.620117 146.839355 Q 410.710449 146.839355 411.330811 147.682617 Q 411.951172 148.525879 411.951172 150.019043 Q 411.951172 151.485352 411.328125 152.320557 Q 410.705078 153.155762 409.620117 153.155762 Q 409.072266 153.155762 408.661377 152.922119 Q 408.250488 152.688477 408.014160 152.242676 Z M 410.914551 149.997559 Q 410.914551 148.848145 410.552002 148.262695 Q 410.189453 147.677246 409.475098 147.677246 Q 408.755371 147.677246 408.384766 148.265381 Q 408.014160 148.853516 408.014160 149.997559 Q 408.014160 151.136230 408.384766 151.727051 Q 408.755371 152.317871 409.475098 152.317871 Q 410.189453 152.317871 410.552002 151.732422 Q 410.914551 151.146973 410.914551 149.997559 Z " fill="rgb(0, 0, 0)" fill-opacity="1.000000" />
<path d="M 436.878906 156.319336 L 436.878906 142.300781 L 437.738281 142.300781 L 437.738281 156.319336 Z " fill="rgb(0, 0, 0)" fill-opacity="1.000000" />
<path d="M 471.878906 156.319336 L 471.878906 142.300781 L 472.738281 142.300781 L 472.738281 156.319336 Z " fill="rgb(0, 0, 0)" fill-opacity="1.000000" />
<path d="M 494.860840 148.998535 Q 494.860840 147.231445 494.498291 146.474121 Q 494.135742 145.716797 493.308594 145.716797 Q 492.486816 145.716797 492.124268 146.474121 Q 491.761719 147.231445 491.761719 148.998535 Q 491.761719 150.760254 492.124268 151.517578 Q 492.486816 152.274902 493.308594 152.274902 Q 494.135742 152.274902 494.498291 151.520264 Q 494.860840 150.765625 494.860840 148.998535 Z M 495.994141 148.998535 Q 495.994141 151.093262 495.330811 152.124512 Q 494.667480 153.155762 493.308594 153.155762 Q 491.949707 153.155762 491.289062 152.129883 Q 490.628418 151.104004 490.628418 148.998535 Q 490.628418 146.898438 491.291748 145.867188 Q 491.955078 144.835938 493.308594 144.835938 Q 494.667480 144.835938 495.330811 145.867188 Q 495.994141 146.898438 495.994141 148.998535 Z " fill="rgb(0, 0, 0)" fill-opacity="1.000000" />
<path d="M 499.014160 152.242676 L 499.014160 155.288086 L 498.020508 155.288086 L 498.020508 146.984375 L 499.014160 146.984375 L 499.014160 147.752441 Q 499.261230 147.306641 499.672119 147.072998 Q 500.083008 146.839355 500.620117 146.839355 Q 501.710449 146.839355 502.330811 147.682617 Q 502.951172 148.525879 502.951172 150.019043 Q 502.951172 151.485352 502.328125 152.320557 Q 501.705078 153.155762 500.620117 153.155762 Q 500.072266 153.155762 499.661377 152.922119 Q 499.250488 152.688477 499.014160 152.242676 Z M 501.914551 149.997559 Q 501.914551 148.848145 501.552002 148.262695 Q 501.189453 147.677246 500.475098 147.677246 Q 499.755371 147.677246 499.384766 148.265381 Q 499.014160 148.853516 499.014160 149.997559 Q 499.014160 151.136230 499.384766 151.727051 Q 499.755371 152.317871 500.475098 152.317871 Q 501.189453 152.317871 501.552002 151.732422 Q 501.914551 151.146973 501.914551 149.997559 Z " fill="rgb(0, 0, 0)" fill-opacity="1.000000" />
<path d="M 507.297852 145.276367 L 507.297852 146.984375 L 509.542969 146.984375 L 509.542969 147.752441 L 507.297852 147.752441 L 507.297852 151.018066 Q 507.297852 151.684082 507.550293 151.947266 Q 507.802734 152.210449 508.431152 152.210449 L 509.542969 152.210449 L 509.542969 153.000000 L 508.334473 153.000000 Q 507.222656 153.000000 506.766113 152.554199 Q 506.309570 152.108398 506.309570 151.018066 L 506.309570 147.752441 L 504.703613 147.752441 L 504.703613 146.984375 L 506.309570 146.984375 L 506.309570 145.276367 Z " fill="rgb(0, 0, 0)" fill-opacity="1.000000" />
<path d="M 512.697266 147.005859 L 515.227051 147.005859 L 515.227051 152.231934 L 517.187500 152.231934 L 517.187500 153.000000 L 512.278320 153.000000 L 512.278320 152.231934 L 514.238770 152.231934 L 514.238770 147.773926 L 512.697266 147.773926 Z M 514.238770 144.669434 L 515.227051 144.669434 L 515.227051 145.915527 L 514.238770 145.915527 Z " fill="rgb(0, 0, 0)" fill-opacity="1.000000" />
<path d="M 521.308594 147.677246 Q 520.556641 147.677246 520.169922 148.262695 Q 519.783203 148.848145 519.783203 149.997559 Q 519.783203 151.141602 520.169922 151.729736 Q 520.556641 152.317871 521.308594 152.317871 Q 522.065918 152.317871 522.452637 151.729736 Q 522.839355 151.141602 522.839355 149.997559 Q 522.839355 148.848145 522.452637 148.262695 Q 522.065918 147.677246 521.308594 147.677246 Z M 521.308594 146.839355 Q 522.560059 146.839355 523.223389 147.650391 Q 523.886719 148.461426 523.886719 149.997559 Q 523.886719 151.539062 523.226074 152.347412 Q 522.565430 153.155762 521.308594 153.155762 Q 520.057129 153.155762 519.396484 152.347412 Q 518.735840 151.539062 518.735840 149.997559 Q 518.735840 148.461426 519.396484 147.650391 Q 520.057129 146.839355 521.308594 146.839355 Z " fill="rgb(0, 0, 0)" fill-opacity="1.000000" />
<path d="M 530.645020 149.272461 L 530.645020 153.000000 L 529.651367 153.000000 L 529.651367 149.272461 Q 529.651367 148.461426 529.366699 148.080078 Q 529.082031 147.698730 528.475098 147.698730 Q 527.782227 147.698730 527.408936 148.190186 Q 527.035645 148.681641 527.035645 149.600098 L 527.035645 153.000000 L 526.047363 153.000000 L 526.047363 146.984375 L 527.035645 146.984375 L 527.035645 147.886719 Q 527.298828 147.371094 527.750000 147.105225 Q 528.201172 146.839355 528.818848 146.839355 Q 529.737305 146.839355 530.191162 147.443604 Q 530.645020 148.047852 530.645020 149.272461 Z " fill="rgb(0, 0, 0)" fill-opacity="1.000000" />
<path d="M 548.878906 156.319336 L 548.878906 142.300781 L 549.738281 142.300781 L 549.738281 156.319336 Z " fill="rgb(0, 0, 0)" fill-opacity="1.000000" />
<path d="M 156.878906 143.319336 L 156.878906 136.412109 L 160.729980 136.412109 L 160.729980 137.335938 L 157.738281 137.335938 L 157.738281 143.319336 Z " fill="rgb(0, 0, 0)" fill-opacity="1.000000" />
<path d="M 160.892578 137.335938 L 160.892578 136.412109 L 167.729980 136.412109 L 167.729980 137.335938 Z " fill="rgb(0, 0, 0)" fill-opacity="1.000000" />
<path d="M 167.892578 137.335938 L 167.892578 136.412109 L 174.729980 136.412109 L 174.729980 137.335938 Z " fill="rgb(0, 0, 0)" fill-opacity="1.000000" />
<path d="M 174.892578 137.335938 L 174.892578 136.412109 L 181.729980 136.412109 L 181.729980 137.335938 Z " fill="rgb(0, 0, 0)" fill-opacity="1.000000" />
<path d="M 181.892578 137.335938 L 181.892578 136.412109 L 188.729980 136.412109 L 188.729980 137.335938 Z " fill="rgb(0, 0, 0)" fill-opacity="1.000000" />
<path d="M 188.892578 137.335938 L 188.892578 136.412109 L 195.729980 136.412109 L 195.729980 137.335938 Z " fill="rgb(0, 0, 0)" fill-opacity="1.000000" />
<path d="M 195.892578 137.335938 L 195.892578 136.412109 L 202.729980 136.412109 L 202.729980 137.335938 Z " fill="rgb(0, 0, 0)" fill-opacity="1.000000" />
<path d="M 202.892578 137.335938 L 202.892578 136.412109 L 209.729980 136.412109 L 209.729980 137.335938 Z " fill="rgb(0, 0, 0)" fill-opacity="1.000000" />
<path d="M 209.892578 137.335938 L 209.892578 136.412109 L 216.729980 136.412109 L 216.729980 137.335938 Z " fill="rgb(0, 0, 0)" fill-opacity="1.000000" />
<path d="M 216.892578 137.335938 L 216.892578 136.412109 L 223.729980 136.412109 L 223.729980 137.335938 Z " fill="rgb(0, 0, 0)" fill-opacity="1.000000" />
<path d="M 226.878906 143.319336 L 226.878906 137.335938 L 223.892578 137.335938 L 223.892578 136.412109 L 227.738281 136.412109 L 227.738281 143.319336 Z " fill="rgb(0, 0, 0)" fill-opacity="1.000000" />
<path d="M 261.878906 143.319336 L 261.878906 136.412109 L 265.729980 136.412109 L 265.729980 137.335938 L 262.738281 137.335938 L 262.738281 143.319336 Z " fill="rgb(0, 0, 0)" fill-opacity="1.000000" />
<path d="M 265.892578 137.335938 L 265.892578 136.412109 L 272.729980 136.412109 L 272.729980 137.335938 Z " fill="rgb(0, 0, 0)" fill-opacity="1.000000" />
<path d="M 272.892578 137.335938 L 272.892578 136.412109 L 279.729980 136.412109 L 279.729980 137.335938 Z " fill="rgb(0, 0, 0)" fill-opacity="1.000000" />
<path d="M 279.892578 137.335938 L 279.892578 136.412109 L 286.729980 136.412109 L 286.729980 137.335938 Z " fill="rgb(0, 0, 0)" fill-opacity="1.000000" />
<path d="M 286.892578 137.335938 L 286.892578 136.412109 L 293.729980 136.412109 L 293.729980 137.335938 Z " fill="rgb(0, 0, 0)" fill-opacity="1.000000" />
<path d="M 293.892578 137.335938 L 293.892578 136.412109 L 300.729980 136.412109 L 300.729980 137.335938 Z " fill="rgb(0, 0, 0)" fill-opacity="1.000000" />
<path d="M 300.892578 137.335938 L 300.892578 136.412109 L 307.729980 136.412109 L 307.729980 137.335938 Z " fill="rgb(0, 0, 0)" fill-opacity="1.000000" />
<path d="M 307.892578 137.335938 L 307.892578 136.412109 L 314.729980 136.412109 L 314.729980 137.335938 Z " fill="rgb(0, 0, 0)" fill-opacity="1.000000" />
<path d="M 314.892578 137.335938 L 314.892578 136.412109 L 321.729980 136.412109 L 321.729980 137.335938 Z " fill="rgb(0, 0, 0)" fill-opacity="1.000000" />
<path d="M 321.892578 137.335938 L 321.892578 136.412109 L 328.729980 136.412109 L 328.729980 137.335938 Z " fill="rgb(0, 0, 0)" fill-opacity="1.000000" />
<path d="M 331.878906 143.319336 L 331.878906 137.335938 L 328.892578 137.335938 L 328.892578 136.412109 L 332.738281 136.412109 L 332.738281 143.319336 Z " fill="rgb(0, 0, 0)" fill-opacity="1.000000" />
<path d="M 366.878906 143.319336 L 366.878906 136.412109 L 370.729980 136.412109 L 370.729980 137.335938 L 367.738281 137.335938 L 367.738281 143.319336 Z " fill="rgb(0, 0, 0)" fill-opacity="1.000000" />
<path d="M 370.892578 137.335938 L 370.892578 136.412109 L 377.729980 136.412109 L 377.729980 137.335938 Z " fill="rgb(0, 0, 0)" fill-opacity="1.000000" />
<path d="M 377.892578 137.335938 L 377.892578 136.412109 L 384.729980 136.412109 L 384.729980 137.335938 Z " fill="rgb(0, 0, 0)" fill-opacity="1.000000" />
<path d="M 384.892578 137.335938 L 384.892578 136.412109 L 391.729980 136.412109 L 391.729980 137.335938 Z " fill="rgb(0, 0, 0)" fill-opacity="1.000000" />
<path d="M 391.892578 137.335938 L 391.892578 136.412109 L 398.729980 136.412109 L 398.729980 137.335938 Z " fill="rgb(0, 0, 0)" fill-opacity="1.000000" />
<path d="M 398.892578 137.335938 L 398.892578 136.412109 L 405.729980 136.412109 L 405.729980 137.335938 Z " fill="rgb(0, 0, 0)" fill-opacity="1.000000" />
<path d="M 405.892578 137.335938 L 405.892578 136.412109 L 412.729980 136.412109 L 412.729980 137.335938 Z " fill="rgb(0, 0, 0)" fill-opacity="1.000000" />
<path d="M 412.892578 137.335938 L 412.892578 136.412109 L 419.729980 136.412109 L 419.729980 137.335938 Z " fill="rgb(0, 0, 0)" fill-opacity="1.000000" />
<path d="M 419.892578 137.335938 L 419.892578 136.412109 L 426.729980 136.412109 L 426.729980 137.335938 Z " fill="rgb(0, 0, 0)" fill-opacity="1.000000" />
<path d="M 426.892578 137.335938 L 426.892578 136.412109 L 433.729980 136.412109 L 433.729980 137.335938 Z " fill="rgb(0, 0, 0)" fill-opacity="1.000000" />
<path d="M 436.878906 143.319336 L 436.878906 137.335938 L 433.892578 137.335938 L 433.892578 136.412109 L 437.738281 136.412109 L 437.738281 143.319336 Z " fill="rgb(0, 0, 0)" fill-opacity="1.000000" />
<path d="M 471.878906 143.319336 L 471.878906 136.412109 L 475.729980 136.412109 L 475.729980 137.335938 L 472.738281 137.335938 L 472.738281 143.319336 Z " fill="rgb(0, 0, 0)" fill-opacity="1.000000" />
<path d="M 475.892578 137.335938 L 475.892578 136.412109 L 482.729980 136.412109 L 482.729980 137.335938 Z " fill="rgb(0, 0, 0)" fill-opacity="1.000000" />
<path d="M 482.892578 137.335938 L 482.892578 136.412109 L 489.729980 136.412109 L 489.729980 137.335938 Z " fill="rgb(0, 0, 0)" fill-opacity="1.000000" />
<path d="M 489.892578 137.335938 L 489.892578 136.412109 L 496.729980 136.412109 L 496.729980 137.335938 Z " fill="rgb(0, 0, 0)" fill-opacity="1.000000" />
<path d="M 496.892578 137.335938 L 496.892578 136.412109 L 503.729980 136.412109 L 503.729980 137.335938 Z " fill="rgb(0, 0, 0)" fill-opacity="1.000000" />
<path d="M 503.892578 137.335938 L 503.892578 136.412109 L 510.729980 136.412109 L 510.729980 137.335938 Z " fill="rgb(0, 0, 0)" fill-opacity="1.000000" />
<path d="M 510.892578 137.335938 L 510.892578 136.412109 L 517.729980 136.412109 L 517.729980 137.335938 Z " fill="rgb(0, 0, 0)" fill-opacity="1.000000" />
<path d="M 517.892578 137.335938 L 517.892578 136.412109 L 524.729980 136.412109 L 524.729980 137.335938 Z " fill="rgb(0, 0, 0)" fill-opacity="1.000000" />
<path d="M 524.892578 137.335938 L 524.892578 136.412109 L 531.729980 136.412109 L 531.729980 137.335938 Z " fill="rgb(0, 0, 0)" fill-opacity="1.000000" />
<path d="M 531.892578 137.335938 L 531.892578 136.412109 L 538.729980 136.412109 L 538.729980 137.335938 Z " fill="rgb(0, 0, 0)" fill-opacity="1.000000" />
<path d="M 538.892578 137.335938 L 538.892578 136.412109 L 545.729980 136.412109 L 545.729980 137.335938 Z " fill="rgb(0, 0, 0)" fill-opacity="1.000000" />
<path d="M 548.878906 143.319336 L 548.878906 137.335938 L 545.892578 137.335938 L 545.892578 136.412109 L 549.738281 136.412109 L 549.738281 143.319336 Z " fill="rgb(0, 0, 0)" fill-opacity="1.000000" />
<path d="M 191.878906 91.319336 L 191.878906 84.412109 L 195.729980 84.412109 L 195.729980 85.335938 L 192.738281 85.335938 L 192.738281 91.319336 Z " fill="rgb(0, 0, 0)" fill-opacity="1.000000" />
<path d="M 191.878906 104.319336 L 191.878906 90.300781 L 192.738281 90.300781 L 192.738281 104.319336 Z " fill="rgb(0, 0, 0)" fill-opacity="1.000000" />
<path d="M 191.878906 117.319336 L 191.878906 103.300781 L 192.738281 103.300781 L 192.738281 117.319336 Z " fill="rgb(0, 0, 0)" fill-opacity="1.000000" />
<path d="M 191.878906 130.319336 L 191.878906 116.300781 L 192.738281 116.300781 L 192.738281 130.319336 Z " fill="rgb(0, 0, 0)" fill-opacity="1.000000" />
<path d="M 226.878906 98.335938 L 226.878906 90.300781 L 227.738281 90.300781 L 227.738281 97.412109 L 230.729980 97.412109 L 230.729980 98.335938 Z " fill="rgb(0, 0, 0)" fill-opacity="1.000000" />
<path d="M 294.950684 113.806641 L 299.671875 113.806641 L 297.308594 109.090820 Z M 294.032227 114.418945 L 297.308594 107.866211 L 300.590332 114.418945 Z " fill="rgb(0, 0, 0)" fill-opacity="1.000000" />
<path d="M 296.878906 130.319336 L 296.878906 116.300781 L 297.738281 116.300781 L 297.738281 130.319336 Z " fill="rgb(0, 0, 0)" fill-opacity="1.000000" />
<path d="M 401.878906 130.319336 L 401.878906 116.300781 L 402.738281 116.300781 L 402.738281 130.319336 Z " fill="rgb(0, 0, 0)" fill-opacity="1.000000" />
<path d="M 513.878906 130.319336 L 513.878906 116.300781 L 514.738281 116.300781 L 514.738281 130.319336 Z " fill="rgb(0, 0, 0)" fill-opacity="1.000000" />
<path d="M 401.878906 117.319336 L 401.878906 103.300781 L 402.738281 103.300781 L 402.738281 117.319336 Z " fill="rgb(0, 0, 0)" fill-opacity="1.000000" />
<path d="M 230.892578 98.335938 L 230.892578 97.412109 L 237.729980 97.412109 L 237.729980 98.335938 Z " fill="rgb(0, 0, 0)" fill-opacity="1.000000" />
<path d="M 237.892578 98.335938 L 237.892578 97.412109 L 244.729980 97.412109 L 244.729980 98.335938 Z " fill="rgb(0, 0, 0)" fill-opacity="1.000000" />
<path d="M 244.892578 98.335938 L 244.892578 97.412109 L 251.729980 97.412109 L 251.729980 98.335938 Z " fill="rgb(0, 0, 0)" fill-opacity="1.000000" />
<path d="M 251.892578 98.335938 L 251.892578 97.412109 L 258.729980 97.412109 L 258.729980 98.335938 Z " fill="rgb(0, 0, 0)" fill-opacity="1.000000" />
<path d="M 258.892578 98.335938 L 258.892578 97.412109 L 265.729980 97.412109 L 265.729980 98.335938 Z " fill="rgb(0, 0, 0)" fill-opacity="1.000000" />
<path d="M 265.892578 98.335938 L 265.892578 97.412109 L 272.729980 97.412109 L 272.729980 98.335938 Z " fill="rgb(0, 0, 0)" fill-opacity="1.000000" />
<path d="M 272.892578 98.335938 L 272.892578 97.412109 L 279.729980 97.412109 L 279.729980 98.335938 Z " fill="rgb(0, 0, 0)" fill-opacity="1.000000" />
<path d="M 279.892578 98.335938 L 279.892578 97.412109 L 286.729980 97.412109 L 286.729980 98.335938 Z " fill="rgb(0, 0, 0)" fill-opacity="1.000000" />
<path d="M 286.892578 98.335938 L 286.892578 97.412109 L 293.729980 97.412109 L 293.729980 98.335938 Z " fill="rgb(0, 0, 0)" fill-opacity="1.000000" />
<path d="M 293.892578 98.335938 L 293.892578 97.412109 L 300.729980 97.412109 L 300.729980 98.335938 Z " fill="rgb(0, 0, 0)" fill-opacity="1.000000" />
<path d="M 300.892578 98.335938 L 300.892578 97.412109 L 307.729980 97.412109 L 307.729980 98.335938 Z " fill="rgb(0, 0, 0)" fill-opacity="1.000000" />
<path d="M 307.892578 98.335938 L 307.892578 97.412109 L 314.729980 97.412109 L 314.729980 98.335938 Z " fill="rgb(0, 0, 0)" fill-opacity="1.000000" />
<path d="M 314.892578 98.335938 L 314.892578 97.412109 L 321.729980 97.412109 L 321.729980 98.335938 Z " fill="rgb(0, 0, 0)" fill-opacity="1.000000" />
<path d="M 321.892578 98.335938 L 321.892578 97.412109 L 328.729980 97.412109 L 328.729980 98.335938 Z " fill="rgb(0, 0, 0)" fill-opacity="1.000000" />
<path d="M 328.892578 98.335938 L 328.892578 97.412109 L 335.729980 97.412109 L 335.729980 98.335938 Z " fill="rgb(0, 0, 0)" fill-opacity="1.000000" />
<path d="M 335.892578 98.335938 L 335.892578 97.412109 L 342.729980 97.412109 L 342.729980 98.335938 Z " fill="rgb(0, 0, 0)" fill-opacity="1.000000" />
<path d="M 342.892578 98.335938 L 342.892578 97.412109 L 349.729980 97.412109 L 349.729980 98.335938 Z " fill="rgb(0, 0, 0)" fill-opacity="1.000000" />
<path d="M 349.892578 98.335938 L 349.892578 97.412109 L 356.729980 97.412109 L 356.729980 98.335938 Z " fill="rgb(0, 0, 0)" fill-opacity="1.000000" />
<path d="M 356.892578 98.335938 L 356.892578 97.412109 L 363.729980 97.412109 L 363.729980 98.335938 Z " fill="rgb(0, 0, 0)" fill-opacity="1.000000" />
<path d="M 363.892578 98.335938 L 363.892578 97.412109 L 366.878906 97.412109 L 366.878906 90.300781 L 367.738281 90.300781 L 367.738281 98.335938 Z " fill="rgb(0, 0, 0)" fill-opacity="1.000000" />
<path d="M 401.878906 104.319336 L 401.878906 90.300781 L 402.738281 90.300781 L 402.738281 104.319336 Z " fill="rgb(0, 0, 0)" fill-opacity="1.000000" />
<path d="M 513.878906 104.319336 L 513.878906 90.300781 L 514.738281 90.300781 L 514.738281 104.319336 Z " fill="rgb(0, 0, 0)" fill-opacity="1.000000" />
<path d="M 195.892578 85.335938 L 195.892578 84.412109 L 202.729980 84.412109 L 202.729980 85.335938 Z " fill="rgb(0, 0, 0)" fill-opacity="1.000000" />
<path d="M 202.892578 85.335938 L 202.892578 84.412109 L 209.729980 84.412109 L 209.729980 85.335938 Z " fill="rgb(0, 0, 0)" fill-opacity="1.000000" />
<path d="M 209.892578 85.335938 L 209.892578 84.412109 L 216.729980 84.412109 L 216.729980 85.335938 Z " fill="rgb(0, 0, 0)" fill-opacity="1.000000" />
<path d="M 217.644531 87.505859 L 222.365723 85.142578 L 217.644531 82.779297 Z M 217.032227 88.418945 L 217.032227 81.866211 L 223.590332 85.142578 Z " fill="rgb(0, 0, 0)" fill-opacity="1.000000" />
<path d="M 226.878906 91.319336 L 226.878906 77.300781 L 227.738281 77.300781 L 227.738281 91.319336 Z " fill="rgb(0, 0, 0)" fill-opacity="1.000000" />
<path d="M 267.079590 79.980957 L 271.532227 79.980957 L 271.532227 80.894043 L 269.851074 80.894043 L 269.851074 87.086914 L 271.532227 87.086914 L 271.532227 88.000000 L 267.079590 88.000000 L 267.079590 87.086914 L 268.760742 87.086914 L 268.760742 80.894043 L 267.079590 80.894043 Z " fill="rgb(0, 0, 0)" fill-opacity="1.000000" />
<path d="M 276.297852 80.276367 L 276.297852 81.984375 L 278.542969 81.984375 L 278.542969 82.752441 L 276.297852 82.752441 L 276.297852 86.018066 Q 276.297852 86.684082 276.550293 86.947266 Q 276.802734 87.210449 277.431152 87.210449 L 278.542969 87.210449 L 278.542969 88.000000 L 277.334473 88.000000 Q 276.222656 88.000000 275.766113 87.554199 Q 275.309570 87.108398 275.309570 86.018066 L 275.309570 82.752441 L 273.703613 82.752441 L 273.703613 81.984375 L 275.309570 81.984375 L 275.309570 80.276367 Z " fill="rgb(0, 0, 0)" fill-opacity="1.000000" />
<path d="M 286.015625 84.498047 L 286.015625 84.981445 L 281.734863 84.981445 L 281.734863 85.013672 Q 281.691895 86.243652 282.204834 86.780762 Q 282.717773 87.317871 283.652344 87.317871 Q 284.125000 87.317871 284.640625 87.167480 Q 285.156250 87.017090 285.741699 86.710938 L 285.741699 87.693848 Q 285.177734 87.924805 284.654053 88.040283 Q 284.130371 88.155762 283.641602 88.155762 Q 282.239746 88.155762 281.450195 87.315186 Q 280.660645 86.474609 280.660645 84.997559 Q 280.660645 83.558105 281.434082 82.698730 Q 282.207520 81.839355 283.496582 81.839355 Q 284.645996 81.839355 285.309326 82.618164 Q 285.972656 83.396973 286.015625 84.498047 Z M 285.027344 84.208008 Q 284.962891 83.584961 284.573486 83.131104 Q 284.184082 82.677246 283.453613 82.677246 Q 282.739258 82.677246 282.277344 83.149902 Q 281.815430 83.622559 281.772461 84.213379 Z " fill="rgb(0, 0, 0)" fill-opacity="1.000000" />
<path d="M 293.203613 83.225098 Q 292.886719 82.978027 292.559082 82.865234 Q 292.231445 82.752441 291.839355 82.752441 Q 290.915527 82.752441 290.426758 83.332520 Q 289.937988 83.912598 289.937988 85.008301 L 289.937988 88.000000 L 288.944336 88.000000 L 288.944336 81.984375 L 289.937988 81.984375 L 289.937988 83.160645 Q 290.185059 82.521484 290.697998 82.180420 Q 291.210938 81.839355 291.914551 81.839355 Q 292.279785 81.839355 292.596680 81.930664 Q 292.913574 82.021973 293.203613 82.215332 Z " fill="rgb(0, 0, 0)" fill-opacity="1.000000" />
<path d="M 297.770508 84.976074 L 297.442871 84.976074 Q 296.578125 84.976074 296.140381 85.279541 Q 295.702637 85.583008 295.702637 86.184570 Q 295.702637 86.727051 296.030273 87.027832 Q 296.357910 87.328613 296.937988 87.328613 Q 297.754395 87.328613 298.221680 86.761963 Q 298.688965 86.195312 298.694336 85.196289 L 298.694336 84.976074 Z M 299.687988 84.567871 L 299.687988 88.000000 L 298.694336 88.000000 L 298.694336 87.108398 Q 298.377441 87.645508 297.896729 87.900635 Q 297.416016 88.155762 296.728516 88.155762 Q 295.810059 88.155762 295.262207 87.637451 Q 294.714355 87.119141 294.714355 86.249023 Q 294.714355 85.244629 295.388428 84.723633 Q 296.062500 84.202637 297.367676 84.202637 L 298.694336 84.202637 L 298.694336 84.046875 Q 298.688965 83.327148 298.329102 83.002197 Q 297.969238 82.677246 297.179688 82.677246 Q 296.674805 82.677246 296.159180 82.822266 Q 295.643555 82.967285 295.154785 83.246582 L 295.154785 82.258301 Q 295.702637 82.048828 296.204834 81.944092 Q 296.707031 81.839355 297.179688 81.839355 Q 297.926270 81.839355 298.455322 82.059570 Q 298.984375 82.279785 299.312012 82.720215 Q 299.516113 82.988770 299.602051 83.383545 Q 299.687988 83.778320 299.687988 84.567871 Z " fill="rgb(0, 0, 0)" fill-opacity="1.000000" />
<path d="M 305.930664 84.997559 Q 305.930664 83.848145 305.565430 83.262695 Q 305.200195 82.677246 304.485840 82.677246 Q 303.766113 82.677246 303.395508 83.265381 Q 303.024902 83.853516 303.024902 84.997559 Q 303.024902 86.136230 303.395508 86.727051 Q 303.766113 87.317871 304.485840 87.317871 Q 305.200195 87.317871 305.565430 86.732422 Q 305.930664 86.146973 305.930664 84.997559 Z M 303.024902 82.752441 Q 303.261230 82.312012 303.677490 82.075684 Q 304.093750 81.839355 304.641602 81.839355 Q 305.726562 81.839355 306.349609 82.674561 Q 306.972656 83.509766 306.972656 84.976074 Q 306.972656 86.463867 306.346924 87.309814 Q 305.721191 88.155762 304.630859 88.155762 Q 304.093750 88.155762 303.682861 87.922119 Q 303.271973 87.688477 303.024902 87.242676 L 303.024902 88.000000 L 302.036621 88.000000 L 302.036621 79.642578 L 303.024902 79.642578 Z " fill="rgb(0, 0, 0)" fill-opacity="1.000000" />
<path d="M 311.861816 85.824707 Q 311.861816 86.490723 312.106201 86.829102 Q 312.350586 87.167480 312.828613 87.167480 L 313.983398 87.167480 L 313.983398 88.000000 L 312.731934 88.000000 Q 311.845703 88.000000 311.359619 87.433350 Q 310.873535 86.866699 310.873535 85.824707 L 310.873535 80.383789 L 309.289062 80.383789 L 309.289062 79.610352 L 311.861816 79.610352 Z " fill="rgb(0, 0, 0)" fill-opacity="1.000000" />
<path d="M 321.015625 84.498047 L 321.015625 84.981445 L 316.734863 84.981445 L 316.734863 85.013672 Q 316.691895 86.243652 317.204834 86.780762 Q 317.717773 87.317871 318.652344 87.317871 Q 319.125000 87.317871 319.640625 87.167480 Q 320.156250 87.017090 320.741699 86.710938 L 320.741699 87.693848 Q 320.177734 87.924805 319.654053 88.040283 Q 319.130371 88.155762 318.641602 88.155762 Q 317.239746 88.155762 316.450195 87.315186 Q 315.660645 86.474609 315.660645 84.997559 Q 315.660645 83.558105 316.434082 82.698730 Q 317.207520 81.839355 318.496582 81.839355 Q 319.645996 81.839355 320.309326 82.618164 Q 320.972656 83.396973 321.015625 84.498047 Z M 320.027344 84.208008 Q 319.962891 83.584961 319.573486 83.131104 Q 319.184082 82.677246 318.453613 82.677246 Q 317.739258 82.677246 317.277344 83.149902 Q 316.815430 83.622559 316.772461 84.213379 Z " fill="rgb(0, 0, 0)" fill-opacity="1.000000" />
<path d="M 366.878906 91.319336 L 366.878906 77.300781 L 367.738281 77.300781 L 367.738281 91.319336 Z " fill="rgb(0, 0, 0)" fill-opacity="1.000000" />
<path d="M 372.256836 85.142578 L 376.978027 87.505859 L 376.978027 82.779297 Z M 371.032227 85.142578 L 377.590332 81.866211 L 377.590332 88.418945 Z " fill="rgb(0, 0, 0)" fill-opacity="1.000000" />
<path d="M 377.892578 85.335938 L 377.892578 84.412109 L 384.729980 84.412109 L 384.729980 85.335938 Z " fill="rgb(0, 0, 0)" fill-opacity="1.000000" />
<path d="M 384.892578 85.335938 L 384.892578 84.412109 L 391.729980 84.412109 L 391.729980 85.335938 Z " fill="rgb(0, 0, 0)" fill-opacity="1.000000" />
<path d="M 391.892578 85.335938 L 391.892578 84.412109 L 398.729980 84.412109 L 398.729980 85.335938 Z " fill="rgb(0, 0, 0)" fill-opacity="1.000000" />
<path d="M 401.878906 91.319336 L 401.878906 85.335938 L 398.892578 85.335938 L 398.892578 84.412109 L 402.738281 84.412109 L 402.738281 91.319336 Z " fill="rgb(0, 0, 0)" fill-opacity="1.000000" />
<path d="M 405.892578 85.335938 L 405.892578 84.412109 L 412.729980 84.412109 L 412.729980 85.335938 Z " fill="rgb(0, 0, 0)" fill-opacity="1.000000" />
<path d="M 419.892578 85.335938 L 419.892578 84.412109 L 426.729980 84.412109 L 426.729980 85.335938 Z " fill="rgb(0, 0, 0)" fill-opacity="1.000000" />
<path d="M 433.892578 85.335938 L 433.892578 84.412109 L 440.729980 84.412109 L 440.729980 85.335938 Z " fill="rgb(0, 0, 0)" fill-opacity="1.000000" />
<path d="M 447.892578 85.335938 L 447.892578 84.412109 L 454.729980 84.412109 L 454.729980 85.335938 Z " fill="rgb(0, 0, 0)" fill-opacity="1.000000" />
<path d="M 461.892578 85.335938 L 461.892578 84.412109 L 468.729980 84.412109 L 468.729980 85.335938 Z " fill="rgb(0, 0, 0)" fill-opacity="1.000000" />
<path d="M 475.892578 85.335938 L 475.892578 84.412109 L 482.729980 84.412109 L 482.729980 85.335938 Z " fill="rgb(0, 0, 0)" fill-opacity="1.000000" />
<path d="M 489.892578 85.335938 L 489.892578 84.412109 L 496.729980 84.412109 L 496.729980 85.335938 Z " fill="rgb(0, 0, 0)" fill-opacity="1.000000" />
<path d="M 503.892578 85.335938 L 503.892578 84.412109 L 510.729980 84.412109 L 510.729980 85.335938 Z " fill="rgb(0, 0, 0)" fill-opacity="1.000000" />
<path d="M 226.878906 13.319336 L 226.878906 6.412109 L 230.729980 6.412109 L 230.729980 7.335938 L 227.738281 7.335938 L 227.738281 13.319336 Z " fill="rgb(0, 0, 0)" fill-opacity="1.000000" />
<path d="M 226.878906 26.319336 L 226.878906 12.300781 L 227.738281 12.300781 L 227.738281 26.319336 Z " fill="rgb(0, 0, 0)" fill-opacity="1.000000" />
<path d="M 226.878906 33.335938 L 226.878906 25.300781 L 227.738281 25.300781 L 227.738281 32.412109 L 230.729980 32.412109 L 230.729980 33.335938 Z " fill="rgb(0, 0, 0)" fill-opacity="1.000000" />
<path d="M 226.878906 78.319336 L 226.878906 71.412109 L 230.729980 71.412109 L 230.729980 72.335938 L 227.738281 72.335938 L 227.738281 78.319336 Z " fill="rgb(0, 0, 0)" fill-opacity="1.000000" />
<path d="M 230.892578 72.335938 L 230.892578 71.412109 L 237.729980 71.412109 L 237.729980 72.335938 Z " fill="rgb(0, 0, 0)" fill-opacity="1.000000" />
<path d="M 237.892578 72.335938 L 237.892578 71.412109 L 244.729980 71.412109 L 244.729980 72.335938 Z " fill="rgb(0, 0, 0)" fill-opacity="1.000000" />
<path d="M 244.892578 72.335938 L 244.892578 71.412109 L 251.729980 71.412109 L 251.729980 72.335938 Z " fill="rgb(0, 0, 0)" fill-opacity="1.000000" />
<path d="M 251.892578 72.335938 L 251.892578 71.412109 L 258.729980 71.412109 L 258.729980 72.335938 Z " fill="rgb(0, 0, 0)" fill-opacity="1.000000" />
<path d="M 258.892578 72.335938 L 258.892578 71.412109 L 265.729980 71.412109 L 265.729980 72.335938 Z " fill="rgb(0, 0, 0)" fill-opacity="1.000000" />
<path d="M 265.892578 72.335938 L 265.892578 71.412109 L 272.729980 71.412109 L 272.729980 72.335938 Z " fill="rgb(0, 0, 0)" fill-opacity="1.000000" />
<path d="M 272.892578 72.335938 L 272.892578 71.412109 L 279.729980 71.412109 L 279.729980 72.335938 Z " fill="rgb(0, 0, 0)" fill-opacity="1.000000" />
<path d="M 279.892578 72.335938 L 279.892578 71.412109 L 286.729980 71.412109 L 286.729980 72.335938 Z " fill="rgb(0, 0, 0)" fill-opacity="1.000000" />
<path d="M 286.892578 72.335938 L 286.892578 71.412109 L 293.729980 71.412109 L 293.729980 72.335938 Z " fill="rgb(0, 0, 0)" fill-opacity="1.000000" />
<path d="M 293.892578 72.335938 L 293.892578 71.412109 L 300.729980 71.412109 L 300.729980 72.335938 Z " fill="rgb(0, 0, 0)" fill-opacity="1.000000" />
<path d="M 300.892578 72.335938 L 300.892578 71.412109 L 307.729980 71.412109 L 307.729980 72.335938 Z " fill="rgb(0, 0, 0)" fill-opacity="1.000000" />
<path d="M 307.892578 72.335938 L 307.892578 71.412109 L 314.729980 71.412109 L 314.729980 72.335938 Z " fill="rgb(0, 0, 0)" fill-opacity="1.000000" />
<path d="M 314.892578 72.335938 L 314.892578 71.412109 L 321.729980 71.412109 L 321.729980 72.335938 Z " fill="rgb(0, 0, 0)" fill-opacity="1.000000" />
<path d="M 321.892578 72.335938 L 321.892578 71.412109 L 328.729980 71.412109 L 328.729980 72.335938 Z " fill="rgb(0, 0, 0)" fill-opacity="1.000000" />
<path d="M 328.892578 72.335938 L 328.892578 71.412109 L 335.729980 71.412109 L 335.729980 72.335938 Z " fill="rgb(0, 0, 0)" fill-opacity="1.000000" />
<path d="M 335.892578 72.335938 L 335.892578 71.412109 L 342.729980 71.412109 L 342.729980 72.335938 Z " fill="rgb(0, 0, 0)" fill-opacity="1.000000" />
<path d="M 342.892578 72.335938 L 342.892578 71.412109 L 349.729980 71.412109 L 349.729980 72.335938 Z " fill="rgb(0, 0, 0)" fill-opacity="1.000000" />
<path d="M 349.892578 72.335938 L 349.892578 71.412109 L 356.729980 71.412109 L 356.729980 72.335938 Z " fill="rgb(0, 0, 0)" fill-opacity="1.000000" />
<path d="M 356.892578 72.335938 L 356.892578 71.412109 L 363.729980 71.412109 L 363.729980 72.335938 Z " fill="rgb(0, 0, 0)" fill-opacity="1.000000" />
<path d="M 366.878906 78.319336 L 366.878906 72.335938 L 363.892578 72.335938 L 363.892578 71.412109 L 367.738281 71.412109 L 367.738281 78.319336 Z " fill="rgb(0, 0, 0)" fill-opacity="1.000000" />
<path d="M 294.950684 48.806641 L 299.671875 48.806641 L 297.308594 44.090820 Z M 294.032227 49.418945 L 297.308594 42.866211 L 300.590332 49.418945 Z " fill="rgb(0, 0, 0)" fill-opacity="1.000000" />
<path d="M 296.878906 65.319336 L 296.878906 51.300781 L 297.738281 51.300781 L 297.738281 65.319336 Z " fill="rgb(0, 0, 0)" fill-opacity="1.000000" />
<path d="M 230.892578 33.335938 L 230.892578 32.412109 L 237.729980 32.412109 L 237.729980 33.335938 Z " fill="rgb(0, 0, 0)" fill-opacity="1.000000" />
<path d="M 237.892578 33.335938 L 237.892578 32.412109 L 244.729980 32.412109 L 244.729980 33.335938 Z " fill="rgb(0, 0, 0)" fill-opacity="1.000000" />
<path d="M 244.892578 33.335938 L 244.892578 32.412109 L 251.729980 32.412109 L 251.729980 33.335938 Z " fill="rgb(0, 0, 0)" fill-opacity="1.000000" />
<path d="M 251.892578 33.335938 L 251.892578 32.412109 L 258.729980 32.412109 L 258.729980 33.335938 Z " fill="rgb(0, 0, 0)" fill-opacity="1.000000" />
<path d="M 258.892578 33.335938 L 258.892578 32.412109 L 265.729980 32.412109 L 265.729980 33.335938 Z " fill="rgb(0, 0, 0)" fill-opacity="1.000000" />
<path d="M 265.892578 33.335938 L 265.892578 32.412109 L 272.729980 32.412109 L 272.729980 33.335938 Z " fill="rgb(0, 0, 0)" fill-opacity="1.000000" />
<path d="M 272.892578 33.335938 L 272.892578 32.412109 L 279.729980 32.412109 L 279.729980 33.335938 Z " fill="rgb(0, 0, 0)" fill-opacity="1.000000" />
<path d="M 279.892578 33.335938 L 279.892578 32.412109 L 286.729980 32.412109 L 286.729980 33.335938 Z " fill="rgb(0, 0, 0)" fill-opacity="1.000000" />
<path d="M 286.892578 33.335938 L 286.892578 32.412109 L 293.729980 32.412109 L 293.729980 33.335938 Z " fill="rgb(0, 0, 0)" fill-opacity="1.000000" />
<path d="M 293.892578 33.335938 L 293.892578 32.412109 L 300.729980 32.412109 L 300.729980 33.335938 Z " fill="rgb(0, 0, 0)" fill-opacity="1.000000" />
<path d="M 300.892578 33.335938 L 300.892578 32.412109 L 307.729980 32.412109 L 307.729980 33.335938 Z " fill="rgb(0, 0, 0)" fill-opacity="1.000000" />
<path d="M 307.892578 33.335938 L 307.892578 32.412109 L 314.729980 32.412109 L 314.729980 33.335938 Z " fill="rgb(0, 0, 0)" fill-opacity="1.000000" />
<path d="M 314.892578 33.335938 L 314.892578 32.412109 L 321.729980 32.412109 L 321.729980 33.335938 Z " fill="rgb(0, 0, 0)" fill-opacity="1.000000" />
<path d="M 321.892578 33.335938 L 321.892578 32.412109 L 328.729980 32.412109 L 328.729980 33.335938 Z " fill="rgb(0, 0, 0)" fill-opacity="1.000000" />
<path d="M 328.892578 33.335938 L 328.892578 32.412109 L 335.729980 32.412109 L 335.729980 33.335938 Z " fill="rgb(0, 0, 0)" fill-opacity="1.000000" />
<path d="M 335.892578 33.335938 L 335.892578 32.412109 L 342.729980 32.412109 L 342.729980 33.335938 Z " fill="rgb(0, 0, 0)" fill-opacity="1.000000" />
<path d="M 342.892578 33.335938 L 342.892578 32.412109 L 349.729980 32.412109 L 349.729980 33.335938 Z " fill="rgb(0, 0, 0)" fill-opacity="1.000000" />
<path d="M 349.892578 33.335938 L 349.892578 32.412109 L 356.729980 32.412109 L 356.729980 33.335938 Z " fill="rgb(0, 0, 0)" fill-opacity="1.000000" />
<path d="M 356.892578 33.335938 L 356.892578 32.412109 L 363.729980 32.412109 L 363.729980 33.335938 Z " fill="rgb(0, 0, 0)" fill-opacity="1.000000" />
<path d="M 363.892578 33.335938 L 363.892578 32.412109 L 366.878906 32.412109 L 366.878906 25.300781 L 367.738281 25.300781 L 367.738281 33.335938 Z " fill="rgb(0, 0, 0)" fill-opacity="1.000000" />
<path d="M 259.252441 14.980957 L 265.370117 14.980957 L 265.370117 15.894043 L 262.861816 15.894043 L 262.861816 23.000000 L 261.771484 23.000000 L 261.771484 15.894043 L 259.252441 15.894043 Z " fill="rgb(0, 0, 0)" fill-opacity="1.000000" />
<path d="M 272.203613 18.225098 Q 271.886719 17.978027 271.559082 17.865234 Q 271.231445 17.752441 270.839355 17.752441 Q 269.915527 17.752441 269.426758 18.332520 Q 268.937988 18.912598 268.937988 20.008301 L 268.937988 23.000000 L 267.944336 23.000000 L 267.944336 16.984375 L 268.937988 16.984375 L 268.937988 18.160645 Q 269.185059 17.521484 269.697998 17.180420 Q 270.210938 16.839355 270.914551 16.839355 Q 271.279785 16.839355 271.596680 16.930664 Q 271.913574 17.021973 272.203613 17.215332 Z " fill="rgb(0, 0, 0)" fill-opacity="1.000000" />
<path d="M 276.770508 19.976074 L 276.442871 19.976074 Q 275.578125 19.976074 275.140381 20.279541 Q 274.702637 20.583008 274.702637 21.184570 Q 274.702637 21.727051 275.030273 22.027832 Q 275.357910 22.328613 275.937988 22.328613 Q 276.754395 22.328613 277.221680 21.761963 Q 277.688965 21.195312 277.694336 20.196289 L 277.694336 19.976074 Z M 278.687988 19.567871 L 278.687988 23.000000 L 277.694336 23.000000 L 277.694336 22.108398 Q 277.377441 22.645508 276.896729 22.900635 Q 276.416016 23.155762 275.728516 23.155762 Q 274.810059 23.155762 274.262207 22.637451 Q 273.714355 22.119141 273.714355 21.249023 Q 273.714355 20.244629 274.388428 19.723633 Q 275.062500 19.202637 276.367676 19.202637 L 277.694336 19.202637 L 277.694336 19.046875 Q 277.688965 18.327148 277.329102 18.002197 Q 276.969238 17.677246 276.179688 17.677246 Q 275.674805 17.677246 275.159180 17.822266 Q 274.643555 17.967285 274.154785 18.246582 L 274.154785 17.258301 Q 274.702637 17.048828 275.204834 16.944092 Q 275.707031 16.839355 276.179688 16.839355 Q 276.926270 16.839355 277.455322 17.059570 Q 277.984375 17.279785 278.312012 17.720215 Q 278.516113 17.988770 278.602051 18.383545 Q 278.687988 18.778320 278.687988 19.567871 Z " fill="rgb(0, 0, 0)" fill-opacity="1.000000" />
<path d="M 280.537109 16.984375 L 281.562988 16.984375 L 283.308594 22.033203 L 285.059570 16.984375 L 286.085449 16.984375 L 283.947754 23.000000 L 282.674805 23.000000 Z " fill="rgb(0, 0, 0)" fill-opacity="1.000000" />
<path d="M 293.015625 19.498047 L 293.015625 19.981445 L 288.734863 19.981445 L 288.734863 20.013672 Q 288.691895 21.243652 289.204834 21.780762 Q 289.717773 22.317871 290.652344 22.317871 Q 291.125000 22.317871 291.640625 22.167480 Q 292.156250 22.017090 292.741699 21.710938 L 292.741699 22.693848 Q 292.177734 22.924805 291.654053 23.040283 Q 291.130371 23.155762 290.641602 23.155762 Q 289.239746 23.155762 288.450195 22.315186 Q 287.660645 21.474609 287.660645 19.997559 Q 287.660645 18.558105 288.434082 17.698730 Q 289.207520 16.839355 290.496582 16.839355 Q 291.645996 16.839355 292.309326 17.618164 Q 292.972656 18.396973 293.015625 19.498047 Z M 292.027344 19.208008 Q 291.962891 18.584961 291.573486 18.131104 Q 291.184082 17.677246 290.453613 17.677246 Q 289.739258 17.677246 289.277344 18.149902 Q 288.815430 18.622559 288.772461 19.213379 Z " fill="rgb(0, 0, 0)" fill-opacity="1.000000" />
<path d="M 300.203613 18.225098 Q 299.886719 17.978027 299.559082 17.865234 Q 299.231445 17.752441 298.839355 17.752441 Q 297.915527 17.752441 297.426758 18.332520 Q 296.937988 18.912598 296.937988 20.008301 L 296.937988 23.000000 L 295.944336 23.000000 L 295.944336 16.984375 L 296.937988 16.984375 L 296.937988 18.160645 Q 297.185059 17.521484 297.697998 17.180420 Q 298.210938 16.839355 298.914551 16.839355 Q 299.279785 16.839355 299.596680 16.930664 Q 299.913574 17.021973 300.203613 17.215332 Z " fill="rgb(0, 0, 0)" fill-opacity="1.000000" />
<path d="M 306.226074 17.193848 L 306.226074 18.160645 Q 305.801758 17.913574 305.372070 17.790039 Q 304.942383 17.666504 304.496582 17.666504 Q 303.825195 17.666504 303.494873 17.884033 Q 303.164551 18.101562 303.164551 18.547363 Q 303.164551 18.950195 303.411621 19.148926 Q 303.658691 19.347656 304.641602 19.535645 L 305.039062 19.610840 Q 305.774902 19.750488 306.153564 20.169434 Q 306.532227 20.588379 306.532227 21.259766 Q 306.532227 22.151367 305.898438 22.653564 Q 305.264648 23.155762 304.136719 23.155762 Q 303.690918 23.155762 303.202148 23.061768 Q 302.713379 22.967773 302.144043 22.779785 L 302.144043 21.759277 Q 302.697266 22.043945 303.202148 22.186279 Q 303.707031 22.328613 304.158203 22.328613 Q 304.813477 22.328613 305.173340 22.062744 Q 305.533203 21.796875 305.533203 21.318848 Q 305.533203 20.631348 304.217285 20.368164 L 304.174316 20.357422 L 303.803711 20.282227 Q 302.949707 20.115723 302.557617 19.720947 Q 302.165527 19.326172 302.165527 18.644043 Q 302.165527 17.779297 302.750977 17.309326 Q 303.336426 16.839355 304.421387 16.839355 Q 304.904785 16.839355 305.350586 16.927979 Q 305.796387 17.016602 306.226074 17.193848 Z " fill="rgb(0, 0, 0)" fill-opacity="1.000000" />
<path d="M 311.770508 19.976074 L 311.442871 19.976074 Q 310.578125 19.976074 310.140381 20.279541 Q 309.702637 20.583008 309.702637 21.184570 Q 309.702637 21.727051 310.030273 22.027832 Q 310.357910 22.328613 310.937988 22.328613 Q 311.754395 22.328613 312.221680 21.761963 Q 312.688965 21.195312 312.694336 20.196289 L 312.694336 19.976074 Z M 313.687988 19.567871 L 313.687988 23.000000 L 312.694336 23.000000 L 312.694336 22.108398 Q 312.377441 22.645508 311.896729 22.900635 Q 311.416016 23.155762 310.728516 23.155762 Q 309.810059 23.155762 309.262207 22.637451 Q 308.714355 22.119141 308.714355 21.249023 Q 308.714355 20.244629 309.388428 19.723633 Q 310.062500 19.202637 311.367676 19.202637 L 312.694336 19.202637 L 312.694336 19.046875 Q 312.688965 18.327148 312.329102 18.002197 Q 311.969238 17.677246 311.179688 17.677246 Q 310.674805 17.677246 310.159180 17.822266 Q 309.643555 17.967285 309.154785 18.246582 L 309.154785 17.258301 Q 309.702637 17.048828 310.204834 16.944092 Q 310.707031 16.839355 311.179688 16.839355 Q 311.926270 16.839355 312.455322 17.059570 Q 312.984375 17.279785 313.312012 17.720215 Q 313.516113 17.988770 313.602051 18.383545 Q 313.687988 18.778320 313.687988 19.567871 Z " fill="rgb(0, 0, 0)" fill-opacity="1.000000" />
<path d="M 319.930664 19.997559 Q 319.930664 18.848145 319.565430 18.262695 Q 319.200195 17.677246 318.485840 17.677246 Q 317.766113 17.677246 317.395508 18.265381 Q 317.024902 18.853516 317.024902 19.997559 Q 317.024902 21.136230 317.395508 21.727051 Q 317.766113 22.317871 318.485840 22.317871 Q 319.200195 22.317871 319.565430 21.732422 Q 319.930664 21.146973 319.930664 19.997559 Z M 317.024902 17.752441 Q 317.261230 17.312012 317.677490 17.075684 Q 318.093750 16.839355 318.641602 16.839355 Q 319.726562 16.839355 320.349609 17.674561 Q 320.972656 18.509766 320.972656 19.976074 Q 320.972656 21.463867 320.346924 22.309814 Q 319.721191 23.155762 318.630859 23.155762 Q 318.093750 23.155762 317.682861 22.922119 Q 317.271973 22.688477 317.024902 22.242676 L 317.024902 23.000000 L 316.036621 23.000000 L 316.036621 14.642578 L 317.024902 14.642578 Z " fill="rgb(0, 0, 0)" fill-opacity="1.000000" />
<path d="M 325.861816 20.824707 Q 325.861816 21.490723 326.106201 21.829102 Q 326.350586 22.167480 326.828613 22.167480 L 327.983398 22.167480 L 327.983398 23.000000 L 326.731934 23.000000 Q 325.845703 23.000000 325.359619 22.433350 Q 324.873535 21.866699 324.873535 20.824707 L 324.873535 15.383789 L 323.289062 15.383789 L 323.289062 14.610352 L 325.861816 14.610352 Z " fill="rgb(0, 0, 0)" fill-opacity="1.000000" />
<path d="M 335.015625 19.498047 L 335.015625 19.981445 L 330.734863 19.981445 L 330.734863 20.013672 Q 330.691895 21.243652 331.204834 21.780762 Q 331.717773 22.317871 332.652344 22.317871 Q 333.125000 22.317871 333.640625 22.167480 Q 334.156250 22.017090 334.741699 21.710938 L 334.741699 22.693848 Q 334.177734 22.924805 333.654053 23.040283 Q 333.130371 23.155762 332.641602 23.155762 Q 331.239746 23.155762 330.450195 22.315186 Q 329.660645 21.474609 329.660645 19.997559 Q 329.660645 18.558105 330.434082 17.698730 Q 331.207520 16.839355 332.496582 16.839355 Q 333.645996 16.839355 334.309326 17.618164 Q 334.972656 18.396973 335.015625 19.498047 Z M 334.027344 19.208008 Q 333.962891 18.584961 333.573486 18.131104 Q 333.184082 17.677246 332.453613 17.677246 Q 331.739258 17.677246 331.277344 18.149902 Q 330.815430 18.622559 330.772461 19.213379 Z " fill="rgb(0, 0, 0)" fill-opacity="1.000000" />
<path d="M 366.878906 26.319336 L 366.878906 12.300781 L 367.738281 12.300781 L 367.738281 26.319336 Z " fill="rgb(0, 0, 0)" fill-opacity="1.000000" />
<path d="M 230.892578 7.335938 L 230.892578 6.412109 L 237.729980 6.412109 L 237.729980 7.335938 Z " fill="rgb(0, 0, 0)" fill-opacity="1.000000" />
<path d="M 237.892578 7.335938 L 237.892578 6.412109 L 244.729980 6.412109 L 244.729980 7.335938 Z " fill="rgb(0, 0, 0)" fill-opacity="1.000000" />
<path d="M 244.892578 7.335938 L 244.892578 6.412109 L 251.729980 6.412109 L 251.729980 7.335938 Z " fill="rgb(0, 0, 0)" fill-opacity="1.000000" />
<path d="M 251.892578 7.335938 L 251.892578 6.412109 L 258.729980 6.412109 L 258.729980 7.335938 Z " fill="rgb(0, 0, 0)" fill-opacity="1.000000" />
<path d="M 258.892578 7.335938 L 258.892578 6.412109 L 265.729980 6.412109 L 265.729980 7.335938 Z " fill="rgb(0, 0, 0)" fill-opacity="1.000000" />
<path d="M 265.892578 7.335938 L 265.892578 6.412109 L 272.729980 6.412109 L 272.729980 7.335938 Z " fill="rgb(0, 0, 0)" fill-opacity="1.000000" />
<path d="M 272.892578 7.335938 L 272.892578 6.412109 L 279.729980 6.412109 L 279.729980 7.335938 Z " fill="rgb(0, 0, 0)" fill-opacity="1.000000" />
<path d="M 279.892578 7.335938 L 279.892578 6.412109 L 286.729980 6.412109 L 286.729980 7.335938 Z " fill="rgb(0, 0, 0)" fill-opacity="1.000000" />
<path d="M 286.892578 7.335938 L 286.892578 6.412109 L 293.729980 6.412109 L 293.729980 7.335938 Z " fill="rgb(0, 0, 0)" fill-opacity="1.000000" />
<path d="M 293.892578 7.335938 L 293.892578 6.412109 L 300.729980 6.412109 L 300.729980 7.335938 Z " fill="rgb(0, 0, 0)" fill-opacity="1.000000" />
<path d="M 300.892578 7.335938 L 300.892578 6.412109 L 307.729980 6.412109 L 307.729980 7.335938 Z " fill="rgb(0, 0, 0)" fill-opacity="1.000000" />
<path d="M 307.892578 7.335938 L 307.892578 6.412109 L 314.729980 6.412109 L 314.729980 7.335938 Z " fill="rgb(0, 0, 0)" fill-opacity="1.000000" />
<path d="M 314.892578 7.335938 L 314.892578 6.412109 L 321.729980 6.412109 L 321.729980 7.335938 Z " fill="rgb(0, 0, 0)" fill-opacity="1.000000" />
<path d="M 321.892578 7.335938 L 321.892578 6.412109 L 328.729980 6.412109 L 328.729980 7.335938 Z " fill="rgb(0, 0, 0)" fill-opacity="1.000000" />
<path d="M 328.892578 7.335938 L 328.892578 6.412109 L 335.729980 6.412109 L 335.729980 7.335938 Z " fill="rgb(0, 0, 0)" fill-opacity="1.000000" />
<path d="M 335.892578 7.335938 L 335.892578 6.412109 L 342.729980 6.412109 L 342.729980 7.335938 Z " fill="rgb(0, 0, 0)" fill-opacity="1.000000" />
<path d="M 342.892578 7.335938 L 342.892578 6.412109 L 349.729980 6.412109 L 349.729980 7.335938 Z " fill="rgb(0, 0, 0)" fill-opacity="1.000000" />
<path d="M 349.892578 7.335938 L 349.892578 6.412109 L 356.729980 6.412109 L 356.729980 7.335938 Z " fill="rgb(0, 0, 0)" fill-opacity="1.000000" />
<path d="M 356.892578 7.335938 L 356.892578 6.412109 L 363.729980 6.412109 L 363.729980 7.335938 Z " fill="rgb(0, 0, 0)" fill-opacity="1.000000" />
<path d="M 366.878906 13.319336 L 366.878906 7.335938 L 363.892578 7.335938 L 363.892578 6.412109 L 367.738281 6.412109 L 367.738281 13.319336 Z " fill="rgb(0, 0, 0)" fill-opacity="1.000000" />
</svg>